<?xml version="1.0" encoding="utf-8"?>
<!-- Generator: Adobe Illustrator 25.2.0, SVG Export Plug-In . SVG Version: 6.00 Build 0)  -->
<svg version="1.1" id="Calque_1" xmlns="http://www.w3.org/2000/svg" xmlns:xlink="http://www.w3.org/1999/xlink" x="0px" y="0px"
	 viewBox="0 0 1024 512" style="enable-background:new 0 0 1024 512;" xml:space="preserve">
<style type="text/css">
	.st0{fill:#2C3E50;}
	.st1{fill:#2980BB;}
	.st2{fill:#FFFFFF;}
</style>
<g>
	<path class="st0" d="M199.22,368.83c2.31-7.54,4.59-14.95,6.85-22.37c25.66-84.33,51.32-168.65,76.98-252.98
		c2.7-8.88,5.53-17.73,7.98-26.69c1.85-6.76,5.87-10.75,12.79-11.98c3.7-0.66,7.4-1.2,11.14-1.33c10.82-0.36,21.65-0.48,32.47-0.04
		c3.04,0.13,6.08,0.5,9.11,0.85c1.79,0.21,3.51,0.78,5.15,1.57c3.28,1.58,5.1,4.16,5.31,7.83c0.13,2.23-0.05,4.43-0.52,6.62
		c-1.01,4.75-2.39,9.4-3.91,14.01c-30.36,92.28-60.73,184.57-91.1,276.85c-7.84,23.83-15.68,47.66-23.53,71.48
		c-0.43,1.31-0.91,2.62-1.41,3.91c-1.87,4.76-5.45,7.59-10.28,8.92c-3.48,0.96-7.04,1.59-10.65,1.78
		c-19.97,1.05-39.95,1.07-59.92-0.02c-3.75-0.2-7.45-0.79-11.07-1.79c-6.32-1.74-10.64-5.51-12.64-11.99
		c-3.2-10.33-6.67-20.56-10.05-30.83c-23.39-71.23-46.79-142.47-70.19-213.7C50.36,154.3,38.99,119.67,27.62,85.04
		c-1.73-5.27-3.35-10.57-4.21-16.07c-0.06-0.41-0.19-0.81-0.24-1.22c-0.9-6.56,1.72-10.64,8.11-12.58
		c3.48-1.06,7.09-1.41,10.68-1.56c13.73-0.59,27.47-0.63,41.21-0.03c3.45,0.15,6.88,0.7,10.3,1.34c5.43,1.02,9.03,3.94,10.71,9.22
		c1.72,5.41,3.54,10.8,5.22,16.23c26.83,86.87,53.64,173.74,80.45,260.61c2.62,8.47,5.25,16.94,7.87,25.42
		C197.97,367.17,197.99,368.06,199.22,368.83z"/>
	<path class="st0" d="M699.37,180.71c0-8.6,0-17.21,0-25.81c0-0.97,0.02-1.94-0.02-2.91c-0.07-1.4-0.4-1.77-1.68-1.82
		c-1.11-0.04-2.22-0.02-3.33-0.02c-14.71,0-29.42,0-44.13,0c-0.97,0-1.95-0.08-2.91,0.01c-3.66,0.36-5.68-1.62-6.94-4.74
		c-1.16-2.87-1.47-5.92-1.74-8.95c-0.38-4.45-0.01-8.87,0.67-13.27c0.13-0.82,0.39-1.62,0.64-2.41c1.54-4.81,3.77-5.61,7.55-5.58
		c15.4,0.09,30.81,0.04,46.21,0.04c1.11,0,2.22-0.01,3.33,0c2.02,0.02,2.35-0.23,2.35-2.39c-0.01-10.55,0-21.09,0-31.64
		c0-7.91,0.1-15.82-0.04-23.73c-0.07-4.22,1.49-6.97,6.46-8.32c2.71-0.74,5.47-0.84,8.23-1.06c4.03-0.34,8.05-0.01,12.05,0.42
		c1.63,0.18,3.26,0.68,4.82,1.21c2.95,1,4.49,3.13,4.6,6.25c0.04,1.11,0.02,2.22,0.02,3.33c0,16.93,0,33.86,0,50.79
		c0,1.11-0.02,2.22,0.02,3.33c0.05,1.47,0.3,1.74,1.65,1.8c1.11,0.05,2.22,0.02,3.33,0.02c14.85,0,29.7,0,44.54,0
		c0.69,0,1.39,0,2.08,0c5.1,0.03,7.04,1.36,8.21,6.37c1.7,7.25,1.62,14.59,0.14,21.88c-0.22,1.07-0.7,2.11-1.2,3.09
		c-1.16,2.27-2.93,3.64-5.61,3.56c-1.11-0.03-2.22,0-3.33,0c-14.85,0-29.7,0-44.54,0c-0.97,0-1.94-0.02-2.91,0.01
		c-2.12,0.06-2.33,0.24-2.36,2.41c-0.04,3.19-0.01,6.38-0.01,9.57c0,15.13-0.06,30.25,0.03,45.38c0.03,4.97-0.72,7.33-6.8,8.75
		c-7.38,1.72-14.87,1.51-22.31,0.09c-0.54-0.1-1.06-0.32-1.59-0.5c-3.86-1.32-5.58-3.2-5.52-7.68
		C699.46,199.02,699.37,189.86,699.37,180.71z"/>
	<path class="st0" d="M709.99,231.3c-0.02-0.83-0.02-1.67-0.08-2.5c-0.1-1.36-0.37-1.68-1.69-1.94c-0.68-0.14-1.38-0.15-2.06-0.29
		c-3.15-0.61-6.2-1.51-8.94-3.23c-4.53-2.83-7.17-6.85-7.52-12.25c-0.09-1.38-0.08-2.77-0.08-4.16c-0.01-13.74,0-27.48,0-41.22
		c0-1.11,0.03-2.22-0.02-3.33c-0.08-1.91-0.29-2.11-2.22-2.17c-0.97-0.03-1.94-0.01-2.91-0.01c-12.49,0-24.98-0.08-37.47,0.03
		c-7.44,0.06-12.31-3.54-15.3-10.05c-0.69-1.5-1.25-3.1-1.62-4.71c-1.84-8.09-1.77-16.23-0.35-24.38c0.41-2.34,1.08-4.59,2.13-6.72
		c2.98-6.03,7.75-9.23,14.57-9.21c7.08,0.02,14.16,0,21.23,0c1.38,0,2.76,0,5.12,0c-1.88-2.34-3.13-3.96-4.45-5.52
		c-15.14-17.87-33.9-30.53-55.74-38.78c-19.77-7.46-40.34-11.09-61.34-12.35c-17.06-1.02-34.11-0.77-51.11,1.46
		c-11.85,1.55-23.52,3.92-34.88,7.64c-41.54,13.59-72.62,39.58-92.73,78.51c-7.87,15.24-13.38,31.34-17.28,48
		c-5.08,21.72-7.1,43.78-7.36,66.03c-0.14,11.94,0.41,23.86,1.31,35.76c1.06,13.99,2.97,27.85,5.99,41.55
		c3.38,15.35,8.2,30.23,15.11,44.38c9.6,19.65,22.76,36.41,40.33,49.56c13.81,10.34,29.17,17.56,45.63,22.52
		c19.66,5.92,39.86,8.39,60.3,9.04c14.72,0.46,29.4-0.2,44.01-2.23c13.92-1.94,27.51-5.15,40.66-10.11
		c25.57-9.65,47.4-24.62,64.84-45.8c12.75-15.48,22.12-32.85,28.94-51.65c9.4-25.93,13.61-52.83,14.87-80.26
		C710.36,252.39,710.26,241.84,709.99,231.3z M626.56,285.35c-1.8,14.47-4.46,28.76-9.88,42.4c-3.03,7.63-6.65,14.96-11.33,21.7
		c-13.88,20-32.59,32.48-56.81,36.4c-11.58,1.87-23.18,1.96-34.84,0.92c-7.62-0.68-15.11-2.03-22.39-4.41
		c-17.56-5.73-31.29-16.4-41.07-32.09c-6.21-9.97-10.43-20.79-13.39-32.11c-2.53-9.67-4.06-19.53-5.19-29.46
		c-1.59-13.94-2.28-27.93-2.14-41.95c0.18-17.93,1.78-35.73,5.63-53.27c2.84-12.95,7.36-25.26,14.14-36.7
		c7.43-12.52,17.27-22.66,29.56-30.47c10.87-6.9,22.82-10.53,35.49-12.12c7.6-0.96,15.22-1.07,22.85-0.75
		c10.15,0.43,20.16,1.89,29.79,5.25c17.68,6.16,31.47,17.24,41.32,33.18c6.85,11.08,11.29,23.14,14.16,35.79
		c2.74,12.06,4.24,24.29,5.18,36.61c0.64,8.31,0.77,16.63,0.85,24.95C628.7,261.31,628.05,273.36,626.56,285.35z"/>
	<g>
		<path class="st0" d="M729.21,390.77c-2.85-1.15-5.87-1.63-8.93-1.67c-4.99-0.06-9.97-0.08-14.96-0.02
			c-3.54,0.04-4.66,0.98-5.39,4.43c-0.72,3.38-1.37,6.78-2.04,10.17c-2.57,13.03-5.15,26.06-7.71,39.09
			c-0.16,0.81-0.22,1.65-0.2,2.47c0.02,1.07,0.68,1.85,1.69,2.09c0.54,0.13,1.09,0.22,1.64,0.22c6.92-0.03,13.86,0.3,20.77-0.25
			c3.91-0.31,7.64-1.46,10.96-3.56c6.34-4.02,9.67-9.74,9.29-17.38c-0.2-4.05-1.98-7.14-5.66-9.02c-0.61-0.31-1.22-0.62-2.26-1.16
			c1.08-0.65,1.8-1.06,2.49-1.52c4.62-3.03,7.06-7.37,7.29-12.84C736.42,396.4,734.35,392.84,729.21,390.77z M721.9,430.8
			c-0.88,3.54-3.15,5.76-6.45,7.01c-2.45,0.93-9.46,0.94-12.83,0.07c0.9-4.72,1.78-9.46,2.73-14.18c0.31-1.54,0.66-1.8,2.27-1.81
			c2.9-0.03,5.81-0.17,8.7,0.28C721.16,422.92,723.1,426,721.9,430.8z M724.05,405.03c-0.68,4.33-3.96,7.64-8.31,8.03
			c-2.59,0.23-5.22,0.04-8.26,0.04c0.95-4.89,1.79-9.22,2.62-13.56c0.18-0.96,0.77-1.45,1.71-1.45c2.35,0,4.72-0.11,7.05,0.1
			C722.92,398.55,724.69,400.99,724.05,405.03z"/>
		<path class="st0" d="M960.98,442.58c-0.36-2.47-0.73-4.94-1.08-7.41c-1.78-12.49-3.54-24.97-5.32-37.46
			c-0.31-2.19-0.64-4.39-1.03-6.57c-0.21-1.21-0.95-2-2.24-2.09c-3.6-0.26-7.21-0.28-10.81,0.01c-1.03,0.08-1.84,0.61-2.41,1.44
			c-0.47,0.68-0.89,1.4-1.28,2.14c-8.91,16.61-17.82,33.22-26.71,49.84c-0.52,0.97-0.96,2-1.33,3.04c-0.38,1.06,0.14,1.89,1.27,2.15
			c2.05,0.47,4.14,0.28,6.21,0.19c2.26-0.1,3.85-1.03,4.84-3.23c1.3-2.9,2.96-5.64,4.33-8.52c0.71-1.49,1.73-1.93,3.28-1.91
			c4.16,0.07,8.32,0.02,12.48,0.02c1.66,0,3.33-0.03,4.99,0.03c1.44,0.05,1.73,0.31,1.92,1.65c0.32,2.19,0.63,4.39,0.88,6.6
			c0.6,5.32,0.73,5.45,7.08,5.46c0.39-0.04,1.78-0.08,3.14-0.31c1.55-0.27,2.15-1.06,2.09-2.6
			C961.26,444.22,961.09,443.4,960.98,442.58z M945.54,425.01c-4.43,0.01-8.87,0.01-13.3-0.05c-0.66-0.01-0.83-0.62-0.63-1.21
			c0.13-0.39,0.34-0.75,0.53-1.12c3.41-6.65,6.83-13.31,10.25-19.96c0.24-0.47,0.46-1.02,1.39-1.1c0.61,4.45,1.23,8.91,1.81,13.38
			c0.38,2.88,0.71,5.78,1.04,8.67C946.73,424.41,946.41,425.01,945.54,425.01z"/>
		<path class="st0" d="M834.16,413.83c5.47-5.91,10.94-11.8,16.39-17.72c1.03-1.12,2.05-2.27,2.9-3.53
			c1.26-1.85,0.63-3.32-1.52-3.53c-1.79-0.17-3.6-0.08-5.4-0.15c-2.56-0.1-4.42,0.95-6.08,2.93c-6.23,7.45-12.58,14.79-18.89,22.17
			c-0.09,0.23-0.12,0.56-0.3,0.69c-0.29,0.21-0.67,0.3-1.01,0.44c-0.1-0.36-0.32-0.73-0.27-1.06c0.06-0.34,0.38-0.63,0.59-0.95
			c0.45-2.31,0.88-4.63,1.34-6.94c0.91-4.62,1.86-9.24,2.75-13.86c0.5-2.6,0.04-3.18-2.71-3.36c-1.38-0.09-2.77-0.1-4.16-0.05
			c-3.89,0.14-4.13,0.36-4.95,4.07c-0.15,0.68-0.29,1.35-0.43,2.03c-2.69,13.73-5.38,27.47-8.08,41.21
			c-0.59,2.99-1.2,5.98-1.76,8.98c-0.26,1.42,0.17,2.04,1.62,2.36c2.75,0.6,5.5,0.57,8.23-0.17c0.87-0.24,1.46-0.76,1.67-1.66
			c0.2-0.81,0.43-1.61,0.58-2.43c0.93-4.9,1.78-9.82,2.79-14.71c0.62-3.01,0.96-6.1,1.92-9.03c0.88,0.22,1.05,0.76,1.27,1.26
			c1.11,2.54,2.22,5.08,3.33,7.62c2.45,5.58,4.94,11.15,7.32,16.76c0.61,1.43,1.49,2.28,3.01,2.49c2.63,0.36,5.25,0.46,7.85-0.2
			c1.69-0.43,2.27-1.34,1.8-3.08c-0.32-1.19-0.85-2.34-1.37-3.47c-3.46-7.56-6.93-15.12-10.44-22.66c-0.47-1-0.56-1.8,0.28-2.61
			C833.06,415.09,833.59,414.44,834.16,413.83z"/>
		<path class="st0" d="M778.89,404.08c-1.65-0.13-3.32-0.14-4.98-0.07c-3.52,0.14-3.73,0.34-4.84,3.89
			c-0.21,0.66-0.44,1.31-0.64,1.97c-2.15,7.04-4.95,13.81-8.57,20.23c-0.54,0.96-1.14,1.89-1.8,2.78c-0.29,0.4-0.82,0.18-1.03-0.14
			c-0.21-0.33-0.24-0.79-0.3-1.2c-1.14-7.95-2.28-15.9-3.42-23.85c-0.1-0.68-0.12-1.4-0.33-2.05c-0.27-0.82-0.83-1.51-1.76-1.53
			c-2.35-0.05-4.71-0.14-7.05,0.04c-1.82,0.14-2.54,1.3-2.39,3.22c0.02,0.28,0.06,0.55,0.11,0.82c0.88,5.19,1.76,10.37,2.64,15.56
			c1.2,7.1,2.39,14.2,3.63,21.29c0.31,1.74,0.05,3.2-1.1,4.63c-2,2.48-3.84,5.09-5.74,7.64c-0.91,1.22-1.87,2.41-2.71,3.68
			c-0.99,1.49-0.42,2.64,1.43,2.87c1.1,0.13,2.21,0.12,3.32,0.18c0-0.02,0-0.04,0-0.07c0.55,0,1.11-0.01,1.66,0
			c3.18,0.07,5.45-1.23,7.2-3.99c2.97-4.67,6.23-9.16,9.4-13.71c7.89-11.32,13.97-23.56,18.51-36.58c0.32-0.91,0.63-1.84,0.8-2.78
			C781.26,405.08,780.67,404.22,778.89,404.08z"/>
		<path class="st0" d="M912.23,420.7c0.15-0.53,0.21-1.09,0.32-1.63c0.86-4.2,0.67-4.44-3.73-4.45c-4.16-0.02-8.32,0.01-12.48-0.02
			c-1.73-0.01-2.02-0.33-1.73-1.91c0.72-3.95,1.47-7.9,2.28-11.83c0.37-1.79,0.62-1.95,2.55-1.97c4.71-0.03,9.43,0.01,14.14-0.02
			c3.54-0.02,3.86-0.32,4.82-3.79c0.37-1.35,0.62-2.7,0.59-4.1c-0.03-1.25-0.52-1.81-1.69-1.89c-0.55-0.04-1.11-0.02-1.66-0.02
			c-7.62,0-15.25,0-22.87,0c-0.69,0-1.39-0.03-2.08,0.05c-1.82,0.21-3.08,1.18-3.65,2.94c-0.26,0.78-0.41,1.61-0.57,2.42
			c-0.68,3.39-1.34,6.79-2.01,10.19c-2.59,13.18-5.18,26.36-7.77,39.54c-0.11,0.54-0.19,1.1-0.2,1.65c-0.02,0.76,0.34,1.32,1.1,1.54
			c2.73,0.8,5.46,0.7,8.22,0.14c1.39-0.28,2.18-0.97,2.43-2.42c0.47-2.73,1.06-5.44,1.6-8.15c0.84-4.2,1.67-8.41,2.52-12.67
			c1-0.08,1.82-0.21,2.64-0.21c4.3-0.02,8.59,0.01,12.89-0.02C910.85,424.03,911.43,423.55,912.23,420.7z"/>
		<path class="st0" d="M999.8,437.98c-0.68-0.11-1.38-0.12-2.07-0.12c-3.88-0.01-7.75,0-11.63-0.01c-0.97,0-1.94,0.02-2.9-0.07
			c-0.6-0.05-0.99-0.5-0.97-1.12c0.02-0.69,0.11-1.38,0.25-2.06c1.77-8.96,3.56-17.91,5.31-26.87c1.04-5.29,2.06-10.59,3.02-15.9
			c0.4-2.2-0.01-2.72-2.31-2.83c-2.07-0.1-4.16-0.1-6.22,0.04c-2.01,0.13-2.66,0.76-3.08,2.73c-0.55,2.57-0.99,5.16-1.5,7.74
			c-2.84,14.38-5.69,28.77-8.52,43.15c-0.16,0.81-0.23,1.65-0.21,2.47c0.03,1.24,0.77,2.09,1.99,2.27c0.95,0.14,1.93,0.16,2.9,0.17
			c3.6,0.02,7.2,0.01,10.8,0.01c3.46,0,6.92,0.01,10.39,0c4.29-0.02,4.85-0.5,5.61-4.84c0.19-1.09,0.34-2.19,0.36-3.29
			C1001.01,438.74,1000.59,438.11,999.8,437.98z"/>
		<path class="st0" d="M872.7,389.1c-2.21-0.13-4.44-0.2-6.64-0.08c-2.46,0.13-3.07,0.74-3.56,3.23
			c-3.37,17.13-6.72,34.27-10.06,51.4c-0.16,0.81-0.25,1.65-0.26,2.47c-0.01,0.57,0.29,1.02,0.89,1.25
			c1.46,0.56,2.98,0.58,5.35,0.58c0.55-0.08,1.92-0.25,3.29-0.47c1.26-0.2,1.93-1,2.16-2.21c0.11-0.54,0.16-1.1,0.26-1.64
			c2.41-12.24,4.84-24.47,7.24-36.71c1.01-5.17,1.99-10.34,2.94-15.52C874.58,389.98,874.05,389.18,872.7,389.1z"/>
		<path class="st0" d="M821.56,414.01c-0.53-0.06-0.73-0.5-0.97-0.88l0,0c0,0,0,0,0,0C820.32,414.08,820.68,414.33,821.56,414.01z"
			/>
	</g>
</g>
<g>
	<path class="st1" d="M1243.22,368.83c2.31-7.54,4.59-14.95,6.85-22.37c25.66-84.33,51.32-168.65,76.98-252.98
		c2.7-8.88,5.53-17.73,7.98-26.69c1.85-6.76,5.87-10.75,12.79-11.98c3.7-0.66,7.4-1.2,11.14-1.33c10.82-0.36,21.65-0.48,32.47-0.04
		c3.04,0.13,6.08,0.5,9.11,0.85c1.79,0.21,3.51,0.78,5.15,1.57c3.28,1.58,5.1,4.16,5.31,7.83c0.13,2.23-0.05,4.43-0.52,6.62
		c-1.01,4.75-2.39,9.4-3.91,14.01c-30.36,92.28-60.73,184.57-91.1,276.85c-7.84,23.83-15.68,47.66-23.53,71.48
		c-0.43,1.31-0.91,2.62-1.41,3.91c-1.87,4.76-5.45,7.59-10.28,8.92c-3.48,0.96-7.04,1.59-10.65,1.78
		c-19.97,1.05-39.95,1.07-59.92-0.02c-3.74-0.2-7.45-0.79-11.07-1.79c-6.32-1.74-10.64-5.51-12.64-11.99
		c-3.2-10.33-6.67-20.56-10.05-30.83c-23.39-71.23-46.79-142.47-70.19-213.7c-11.37-34.63-22.74-69.26-34.11-103.89
		c-1.73-5.27-3.35-10.57-4.21-16.07c-0.06-0.41-0.19-0.81-0.24-1.22c-0.9-6.56,1.72-10.64,8.11-12.58
		c3.48-1.06,7.09-1.41,10.68-1.56c13.73-0.59,27.47-0.63,41.21-0.03c3.45,0.15,6.88,0.7,10.3,1.34c5.43,1.02,9.03,3.94,10.71,9.22
		c1.72,5.41,3.54,10.8,5.22,16.23c26.83,86.87,53.64,173.74,80.45,260.61c2.62,8.47,5.25,16.94,7.88,25.42
		C1241.97,367.17,1241.99,368.06,1243.22,368.83z"/>
	<path class="st1" d="M1743.37,180.71c0-8.6,0-17.21,0-25.81c0-0.97,0.02-1.94-0.02-2.91c-0.07-1.4-0.4-1.77-1.68-1.82
		c-1.11-0.04-2.22-0.02-3.33-0.02c-14.71,0-29.42,0-44.13,0c-0.97,0-1.95-0.08-2.91,0.01c-3.66,0.36-5.68-1.62-6.94-4.74
		c-1.16-2.87-1.47-5.92-1.74-8.95c-0.38-4.45-0.01-8.87,0.67-13.27c0.13-0.82,0.39-1.62,0.64-2.41c1.54-4.81,3.77-5.61,7.55-5.58
		c15.4,0.09,30.81,0.04,46.21,0.04c1.11,0,2.22-0.01,3.33,0c2.02,0.02,2.35-0.23,2.35-2.39c-0.01-10.55,0-21.09,0-31.64
		c0-7.91,0.1-15.82-0.04-23.73c-0.07-4.22,1.49-6.97,6.46-8.32c2.71-0.74,5.47-0.84,8.23-1.06c4.03-0.34,8.05-0.01,12.05,0.42
		c1.63,0.18,3.26,0.68,4.82,1.21c2.95,1,4.49,3.13,4.6,6.25c0.04,1.11,0.02,2.22,0.02,3.33c0,16.93,0,33.86,0,50.79
		c0,1.11-0.02,2.22,0.02,3.33c0.05,1.47,0.3,1.74,1.65,1.8c1.11,0.05,2.22,0.02,3.33,0.02c14.85,0,29.7,0,44.54,0
		c0.69,0,1.39,0,2.08,0c5.1,0.03,7.04,1.36,8.21,6.37c1.7,7.25,1.62,14.59,0.14,21.88c-0.22,1.07-0.7,2.11-1.2,3.09
		c-1.16,2.27-2.93,3.64-5.61,3.56c-1.11-0.03-2.22,0-3.33,0c-14.85,0-29.7,0-44.54,0c-0.97,0-1.94-0.02-2.91,0.01
		c-2.12,0.06-2.33,0.24-2.36,2.41c-0.04,3.19-0.01,6.38-0.01,9.57c0,15.13-0.06,30.25,0.03,45.38c0.03,4.97-0.72,7.33-6.8,8.75
		c-7.38,1.72-14.87,1.51-22.31,0.09c-0.54-0.1-1.06-0.32-1.59-0.5c-3.86-1.32-5.58-3.2-5.52-7.68
		C1743.46,199.02,1743.37,189.86,1743.37,180.71z"/>
	<path class="st1" d="M1753.99,231.3c-0.02-0.83-0.02-1.67-0.08-2.5c-0.1-1.36-0.37-1.68-1.69-1.94c-0.68-0.14-1.38-0.15-2.06-0.29
		c-3.15-0.61-6.2-1.51-8.94-3.23c-4.53-2.83-7.17-6.85-7.52-12.25c-0.09-1.38-0.08-2.77-0.08-4.16c-0.01-13.74,0-27.48,0-41.22
		c0-1.11,0.03-2.22-0.02-3.33c-0.08-1.91-0.29-2.11-2.22-2.17c-0.97-0.03-1.94-0.01-2.91-0.01c-12.49,0-24.98-0.08-37.47,0.03
		c-7.44,0.06-12.31-3.54-15.3-10.05c-0.69-1.5-1.25-3.1-1.62-4.71c-1.84-8.09-1.77-16.23-0.35-24.38c0.41-2.34,1.08-4.59,2.13-6.72
		c2.98-6.03,7.75-9.23,14.57-9.21c7.08,0.02,14.16,0,21.23,0c1.38,0,2.76,0,5.12,0c-1.88-2.34-3.13-3.96-4.45-5.52
		c-15.14-17.87-33.9-30.53-55.74-38.78c-19.77-7.46-40.34-11.09-61.34-12.35c-17.06-1.02-34.11-0.77-51.11,1.46
		c-11.85,1.55-23.52,3.92-34.88,7.64c-41.54,13.59-72.62,39.58-92.73,78.51c-7.87,15.24-13.38,31.34-17.28,48
		c-5.08,21.72-7.1,43.78-7.36,66.03c-0.14,11.94,0.41,23.86,1.31,35.76c1.06,13.99,2.97,27.85,5.99,41.55
		c3.38,15.35,8.2,30.23,15.11,44.38c9.6,19.65,22.76,36.41,40.33,49.56c13.81,10.34,29.17,17.56,45.63,22.52
		c19.67,5.92,39.86,8.39,60.3,9.04c14.72,0.46,29.4-0.2,44.01-2.23c13.92-1.94,27.51-5.15,40.66-10.11
		c25.57-9.65,47.4-24.62,64.84-45.8c12.75-15.48,22.12-32.85,28.94-51.65c9.4-25.93,13.61-52.83,14.87-80.26
		C1754.36,252.39,1754.26,241.84,1753.99,231.3z M1670.56,285.35c-1.8,14.47-4.46,28.76-9.88,42.4c-3.03,7.63-6.65,14.96-11.33,21.7
		c-13.88,20-32.58,32.48-56.81,36.4c-11.58,1.87-23.18,1.96-34.84,0.92c-7.62-0.68-15.11-2.03-22.39-4.41
		c-17.56-5.73-31.29-16.4-41.07-32.09c-6.21-9.97-10.43-20.79-13.39-32.11c-2.53-9.67-4.06-19.53-5.19-29.46
		c-1.59-13.94-2.28-27.93-2.14-41.95c0.18-17.93,1.78-35.73,5.63-53.27c2.84-12.95,7.36-25.26,14.14-36.7
		c7.43-12.52,17.27-22.66,29.56-30.47c10.87-6.9,22.82-10.53,35.49-12.12c7.6-0.96,15.22-1.07,22.85-0.75
		c10.15,0.43,20.16,1.89,29.79,5.25c17.68,6.16,31.47,17.24,41.32,33.18c6.85,11.08,11.29,23.14,14.16,35.79
		c2.74,12.06,4.24,24.29,5.18,36.61c0.64,8.31,0.77,16.63,0.85,24.95C1672.7,261.31,1672.05,273.36,1670.56,285.35z"/>
	<g>
		<path class="st1" d="M1773.21,390.77c-2.85-1.15-5.87-1.63-8.93-1.67c-4.99-0.06-9.97-0.08-14.96-0.02
			c-3.54,0.04-4.66,0.98-5.39,4.43c-0.72,3.38-1.37,6.78-2.04,10.17c-2.57,13.03-5.15,26.06-7.71,39.09
			c-0.16,0.81-0.22,1.65-0.2,2.47c0.02,1.07,0.68,1.85,1.69,2.09c0.54,0.13,1.09,0.22,1.64,0.22c6.92-0.03,13.86,0.3,20.77-0.25
			c3.91-0.31,7.64-1.46,10.96-3.56c6.34-4.02,9.67-9.74,9.29-17.38c-0.2-4.05-1.98-7.14-5.66-9.02c-0.61-0.31-1.22-0.62-2.26-1.16
			c1.08-0.65,1.8-1.06,2.49-1.52c4.62-3.03,7.06-7.37,7.29-12.84C1780.42,396.4,1778.35,392.84,1773.21,390.77z M1765.9,430.8
			c-0.88,3.54-3.15,5.76-6.45,7.01c-2.45,0.93-9.46,0.94-12.83,0.07c0.9-4.72,1.78-9.46,2.73-14.18c0.31-1.54,0.66-1.8,2.27-1.81
			c2.9-0.03,5.81-0.17,8.7,0.28C1765.16,422.92,1767.1,426,1765.9,430.8z M1768.05,405.03c-0.68,4.33-3.96,7.64-8.31,8.03
			c-2.59,0.23-5.22,0.04-8.26,0.04c0.95-4.89,1.79-9.22,2.62-13.56c0.18-0.96,0.77-1.45,1.71-1.45c2.35,0,4.72-0.11,7.05,0.1
			C1766.92,398.55,1768.69,400.99,1768.05,405.03z"/>
		<path class="st1" d="M2004.98,442.58c-0.36-2.47-0.73-4.94-1.08-7.41c-1.78-12.49-3.54-24.97-5.32-37.46
			c-0.31-2.19-0.64-4.39-1.03-6.57c-0.21-1.21-0.95-2-2.24-2.09c-3.6-0.26-7.21-0.28-10.81,0.01c-1.03,0.08-1.84,0.61-2.41,1.44
			c-0.47,0.68-0.89,1.4-1.28,2.14c-8.91,16.61-17.82,33.22-26.71,49.84c-0.52,0.97-0.96,2-1.33,3.04c-0.38,1.06,0.14,1.89,1.27,2.15
			c2.05,0.47,4.14,0.28,6.21,0.19c2.26-0.1,3.85-1.03,4.84-3.23c1.3-2.9,2.96-5.64,4.33-8.52c0.71-1.49,1.73-1.93,3.28-1.91
			c4.16,0.07,8.32,0.02,12.48,0.02c1.66,0,3.33-0.03,4.99,0.03c1.44,0.05,1.73,0.31,1.92,1.65c0.32,2.19,0.63,4.39,0.88,6.6
			c0.6,5.32,0.73,5.45,7.08,5.46c0.39-0.04,1.78-0.08,3.14-0.31c1.55-0.27,2.15-1.06,2.09-2.6
			C2005.26,444.22,2005.09,443.4,2004.98,442.58z M1989.54,425.01c-4.43,0.01-8.87,0.01-13.3-0.05c-0.66-0.01-0.83-0.62-0.63-1.21
			c0.13-0.39,0.34-0.75,0.53-1.12c3.41-6.65,6.83-13.31,10.25-19.96c0.24-0.47,0.46-1.02,1.39-1.1c0.61,4.45,1.23,8.91,1.81,13.38
			c0.38,2.88,0.71,5.78,1.04,8.67C1990.73,424.41,1990.41,425.01,1989.54,425.01z"/>
		<path class="st1" d="M1878.16,413.83c5.47-5.91,10.94-11.8,16.39-17.72c1.03-1.12,2.05-2.27,2.9-3.53
			c1.26-1.85,0.63-3.32-1.52-3.53c-1.79-0.17-3.6-0.08-5.4-0.15c-2.56-0.1-4.42,0.95-6.08,2.93c-6.23,7.45-12.58,14.79-18.89,22.17
			c-0.09,0.23-0.12,0.56-0.3,0.69c-0.29,0.21-0.67,0.3-1.01,0.44c-0.1-0.36-0.32-0.73-0.27-1.06c0.06-0.34,0.38-0.63,0.59-0.95
			c0.45-2.31,0.88-4.63,1.34-6.94c0.91-4.62,1.86-9.24,2.75-13.86c0.5-2.6,0.04-3.18-2.71-3.36c-1.38-0.09-2.77-0.1-4.16-0.05
			c-3.89,0.14-4.13,0.36-4.95,4.07c-0.15,0.68-0.29,1.35-0.43,2.03c-2.69,13.73-5.38,27.47-8.08,41.21
			c-0.59,2.99-1.2,5.98-1.76,8.98c-0.26,1.42,0.17,2.04,1.62,2.36c2.75,0.6,5.5,0.57,8.23-0.17c0.87-0.24,1.46-0.76,1.67-1.66
			c0.19-0.81,0.43-1.61,0.58-2.43c0.93-4.9,1.78-9.82,2.79-14.71c0.62-3.01,0.96-6.1,1.92-9.03c0.88,0.22,1.05,0.76,1.27,1.26
			c1.11,2.54,2.22,5.08,3.33,7.62c2.45,5.58,4.94,11.15,7.32,16.76c0.61,1.43,1.49,2.28,3.01,2.49c2.63,0.36,5.25,0.46,7.85-0.2
			c1.69-0.43,2.27-1.34,1.8-3.08c-0.32-1.19-0.85-2.34-1.37-3.47c-3.46-7.56-6.93-15.12-10.44-22.66c-0.47-1-0.56-1.8,0.28-2.61
			C1877.06,415.09,1877.59,414.44,1878.16,413.83z"/>
		<path class="st1" d="M1822.89,404.08c-1.65-0.13-3.32-0.14-4.98-0.07c-3.52,0.14-3.73,0.34-4.84,3.89
			c-0.21,0.66-0.44,1.31-0.64,1.97c-2.15,7.04-4.95,13.81-8.57,20.23c-0.54,0.96-1.14,1.89-1.8,2.78c-0.29,0.4-0.82,0.18-1.03-0.14
			c-0.21-0.33-0.24-0.79-0.3-1.2c-1.15-7.95-2.28-15.9-3.42-23.85c-0.1-0.68-0.12-1.4-0.33-2.05c-0.27-0.82-0.83-1.51-1.76-1.53
			c-2.35-0.05-4.71-0.14-7.05,0.04c-1.82,0.14-2.54,1.3-2.39,3.22c0.02,0.28,0.06,0.55,0.11,0.82c0.88,5.19,1.76,10.37,2.64,15.56
			c1.2,7.1,2.39,14.2,3.63,21.29c0.31,1.74,0.05,3.2-1.1,4.63c-2,2.48-3.84,5.09-5.74,7.64c-0.91,1.22-1.87,2.41-2.71,3.68
			c-0.99,1.49-0.42,2.64,1.43,2.87c1.1,0.13,2.21,0.12,3.32,0.18c0-0.02,0-0.04,0-0.07c0.55,0,1.11-0.01,1.66,0
			c3.18,0.07,5.45-1.23,7.2-3.99c2.97-4.67,6.23-9.16,9.4-13.71c7.89-11.32,13.97-23.56,18.51-36.58c0.32-0.91,0.63-1.84,0.8-2.78
			C1825.26,405.08,1824.67,404.22,1822.89,404.08z"/>
		<path class="st1" d="M1956.23,420.7c0.15-0.53,0.21-1.09,0.32-1.63c0.86-4.2,0.67-4.44-3.73-4.45c-4.16-0.02-8.32,0.01-12.48-0.02
			c-1.73-0.01-2.02-0.33-1.73-1.91c0.72-3.95,1.47-7.9,2.28-11.83c0.37-1.79,0.62-1.95,2.55-1.97c4.71-0.03,9.43,0.01,14.14-0.02
			c3.54-0.02,3.86-0.32,4.82-3.79c0.37-1.35,0.62-2.7,0.59-4.1c-0.03-1.25-0.52-1.81-1.69-1.89c-0.55-0.04-1.11-0.02-1.66-0.02
			c-7.62,0-15.25,0-22.87,0c-0.69,0-1.39-0.03-2.08,0.05c-1.82,0.21-3.08,1.18-3.65,2.94c-0.26,0.78-0.41,1.61-0.57,2.42
			c-0.68,3.39-1.34,6.79-2.01,10.19c-2.59,13.18-5.18,26.36-7.77,39.54c-0.11,0.54-0.19,1.1-0.2,1.65c-0.02,0.76,0.34,1.32,1.1,1.54
			c2.73,0.8,5.46,0.7,8.22,0.14c1.39-0.28,2.18-0.97,2.43-2.42c0.47-2.73,1.06-5.44,1.6-8.15c0.84-4.2,1.67-8.41,2.52-12.67
			c1-0.08,1.82-0.21,2.64-0.21c4.3-0.02,8.59,0.01,12.89-0.02C1954.85,424.03,1955.43,423.55,1956.23,420.7z"/>
		<path class="st1" d="M2043.8,437.98c-0.68-0.11-1.38-0.12-2.07-0.12c-3.88-0.01-7.75,0-11.63-0.01c-0.97,0-1.94,0.02-2.9-0.07
			c-0.6-0.05-0.99-0.5-0.97-1.12c0.02-0.69,0.11-1.38,0.25-2.06c1.77-8.96,3.56-17.91,5.31-26.87c1.04-5.29,2.06-10.59,3.02-15.9
			c0.4-2.2-0.01-2.72-2.31-2.83c-2.07-0.1-4.16-0.1-6.22,0.04c-2.01,0.13-2.66,0.76-3.08,2.73c-0.55,2.57-0.99,5.16-1.5,7.74
			c-2.84,14.38-5.69,28.77-8.52,43.15c-0.16,0.81-0.23,1.65-0.21,2.47c0.03,1.24,0.77,2.09,1.99,2.27c0.95,0.14,1.93,0.16,2.9,0.17
			c3.6,0.02,7.2,0.01,10.8,0.01c3.46,0,6.92,0.01,10.39,0c4.29-0.02,4.85-0.5,5.61-4.84c0.19-1.09,0.34-2.19,0.36-3.29
			C2045.01,438.74,2044.59,438.11,2043.8,437.98z"/>
		<path class="st1" d="M1916.7,389.1c-2.21-0.13-4.44-0.2-6.64-0.08c-2.46,0.13-3.07,0.74-3.56,3.23
			c-3.37,17.13-6.72,34.27-10.06,51.4c-0.16,0.81-0.25,1.65-0.26,2.47c-0.01,0.57,0.29,1.02,0.89,1.25
			c1.46,0.56,2.98,0.58,5.35,0.58c0.55-0.08,1.92-0.25,3.29-0.47c1.26-0.2,1.93-1,2.16-2.21c0.11-0.54,0.16-1.1,0.26-1.64
			c2.41-12.24,4.84-24.47,7.24-36.71c1.01-5.17,1.99-10.34,2.94-15.52C1918.58,389.98,1918.05,389.18,1916.7,389.1z"/>
		<path class="st1" d="M1865.56,414.01c-0.53-0.06-0.73-0.5-0.97-0.88l0,0c0,0,0,0,0,0
			C1864.32,414.08,1864.68,414.33,1865.56,414.01z"/>
	</g>
</g>
<g>
	<path class="st2" d="M2287.22,368.83c2.31-7.54,4.59-14.95,6.85-22.37c25.66-84.33,51.32-168.65,76.98-252.98
		c2.7-8.88,5.53-17.73,7.98-26.69c1.85-6.76,5.87-10.75,12.79-11.98c3.7-0.66,7.4-1.2,11.14-1.33c10.82-0.36,21.65-0.48,32.47-0.04
		c3.04,0.13,6.08,0.5,9.11,0.85c1.79,0.21,3.51,0.78,5.15,1.57c3.28,1.58,5.1,4.16,5.31,7.83c0.13,2.23-0.05,4.43-0.52,6.62
		c-1.01,4.75-2.39,9.4-3.91,14.01c-30.36,92.28-60.73,184.57-91.1,276.85c-7.84,23.83-15.68,47.66-23.53,71.48
		c-0.43,1.31-0.91,2.62-1.41,3.91c-1.87,4.76-5.45,7.59-10.28,8.92c-3.48,0.96-7.04,1.59-10.65,1.78
		c-19.97,1.05-39.95,1.07-59.92-0.02c-3.74-0.2-7.45-0.79-11.07-1.79c-6.32-1.74-10.64-5.51-12.64-11.99
		c-3.2-10.33-6.67-20.56-10.05-30.83c-23.39-71.23-46.79-142.47-70.19-213.7c-11.37-34.63-22.74-69.26-34.11-103.89
		c-1.73-5.27-3.35-10.57-4.21-16.07c-0.06-0.41-0.19-0.81-0.24-1.22c-0.9-6.56,1.72-10.64,8.11-12.58
		c3.48-1.06,7.09-1.41,10.68-1.56c13.73-0.59,27.47-0.63,41.21-0.03c3.45,0.15,6.88,0.7,10.3,1.34c5.43,1.02,9.03,3.94,10.71,9.22
		c1.72,5.41,3.54,10.8,5.22,16.23c26.83,86.87,53.64,173.74,80.45,260.61c2.62,8.47,5.25,16.94,7.88,25.42
		C2285.97,367.17,2285.99,368.06,2287.22,368.83z"/>
	<path class="st2" d="M2787.37,180.71c0-8.6,0-17.21,0-25.81c0-0.97,0.02-1.94-0.02-2.91c-0.07-1.4-0.4-1.77-1.68-1.82
		c-1.11-0.04-2.22-0.02-3.33-0.02c-14.71,0-29.42,0-44.13,0c-0.97,0-1.95-0.08-2.91,0.01c-3.66,0.36-5.68-1.62-6.94-4.74
		c-1.16-2.87-1.47-5.92-1.74-8.95c-0.39-4.45-0.01-8.87,0.67-13.27c0.13-0.82,0.39-1.62,0.64-2.41c1.54-4.81,3.77-5.61,7.55-5.58
		c15.4,0.09,30.81,0.04,46.21,0.04c1.11,0,2.22-0.01,3.33,0c2.02,0.02,2.35-0.23,2.35-2.39c-0.01-10.55,0-21.09,0-31.64
		c0-7.91,0.1-15.82-0.04-23.73c-0.07-4.22,1.49-6.97,6.46-8.32c2.71-0.74,5.47-0.84,8.23-1.06c4.03-0.34,8.05-0.01,12.05,0.42
		c1.63,0.18,3.26,0.68,4.82,1.21c2.95,1,4.49,3.13,4.6,6.25c0.04,1.11,0.02,2.22,0.02,3.33c0,16.93,0,33.86,0,50.79
		c0,1.11-0.02,2.22,0.02,3.33c0.05,1.47,0.3,1.74,1.65,1.8c1.11,0.05,2.22,0.02,3.33,0.02c14.85,0,29.7,0,44.54,0
		c0.69,0,1.39,0,2.08,0c5.1,0.03,7.04,1.36,8.21,6.37c1.7,7.25,1.62,14.59,0.14,21.88c-0.22,1.07-0.7,2.11-1.2,3.09
		c-1.16,2.27-2.93,3.64-5.61,3.56c-1.11-0.03-2.22,0-3.33,0c-14.85,0-29.7,0-44.54,0c-0.97,0-1.94-0.02-2.91,0.01
		c-2.12,0.06-2.33,0.24-2.36,2.41c-0.04,3.19-0.01,6.38-0.01,9.57c0,15.13-0.06,30.25,0.03,45.38c0.03,4.97-0.72,7.33-6.8,8.75
		c-7.38,1.72-14.87,1.51-22.31,0.09c-0.54-0.1-1.06-0.32-1.59-0.5c-3.86-1.32-5.58-3.2-5.52-7.68
		C2787.46,199.02,2787.37,189.86,2787.37,180.71z"/>
	<path class="st2" d="M2797.99,231.3c-0.02-0.83-0.02-1.67-0.08-2.5c-0.1-1.36-0.37-1.68-1.69-1.94c-0.68-0.14-1.38-0.15-2.06-0.29
		c-3.15-0.61-6.2-1.51-8.94-3.23c-4.53-2.83-7.18-6.85-7.52-12.25c-0.09-1.38-0.08-2.77-0.08-4.16c-0.01-13.74,0-27.48,0-41.22
		c0-1.11,0.03-2.22-0.02-3.33c-0.08-1.91-0.29-2.11-2.22-2.17c-0.97-0.03-1.94-0.01-2.91-0.01c-12.49,0-24.98-0.08-37.47,0.03
		c-7.44,0.06-12.31-3.54-15.3-10.05c-0.69-1.5-1.25-3.1-1.62-4.71c-1.84-8.09-1.77-16.23-0.35-24.38c0.41-2.34,1.08-4.59,2.13-6.72
		c2.98-6.03,7.75-9.23,14.58-9.21c7.08,0.02,14.16,0,21.23,0c1.38,0,2.76,0,5.12,0c-1.88-2.34-3.13-3.96-4.45-5.52
		c-15.14-17.87-33.9-30.53-55.74-38.78c-19.77-7.46-40.34-11.09-61.34-12.35c-17.06-1.02-34.11-0.77-51.11,1.46
		c-11.85,1.55-23.52,3.92-34.88,7.64c-41.54,13.59-72.62,39.58-92.73,78.51c-7.87,15.24-13.38,31.34-17.28,48
		c-5.08,21.72-7.1,43.78-7.36,66.03c-0.14,11.94,0.41,23.86,1.31,35.76c1.06,13.99,2.97,27.85,5.99,41.55
		c3.38,15.35,8.2,30.23,15.11,44.38c9.6,19.65,22.76,36.41,40.33,49.56c13.81,10.34,29.17,17.56,45.63,22.52
		c19.66,5.92,39.86,8.39,60.3,9.04c14.72,0.46,29.4-0.2,44.01-2.23c13.92-1.94,27.51-5.15,40.67-10.11
		c25.57-9.65,47.4-24.62,64.84-45.8c12.75-15.48,22.12-32.85,28.94-51.65c9.4-25.93,13.61-52.83,14.87-80.26
		C2798.36,252.39,2798.26,241.84,2797.99,231.3z M2714.56,285.35c-1.8,14.47-4.46,28.76-9.88,42.4c-3.03,7.63-6.65,14.96-11.33,21.7
		c-13.88,20-32.58,32.48-56.81,36.4c-11.58,1.87-23.18,1.96-34.84,0.92c-7.62-0.68-15.11-2.03-22.39-4.41
		c-17.56-5.73-31.29-16.4-41.07-32.09c-6.21-9.97-10.43-20.79-13.39-32.11c-2.53-9.67-4.06-19.53-5.19-29.46
		c-1.59-13.94-2.28-27.93-2.14-41.95c0.18-17.93,1.78-35.73,5.63-53.27c2.84-12.95,7.36-25.26,14.14-36.7
		c7.43-12.52,17.27-22.66,29.56-30.47c10.87-6.9,22.82-10.53,35.49-12.12c7.6-0.96,15.22-1.07,22.85-0.75
		c10.15,0.43,20.16,1.89,29.79,5.25c17.68,6.16,31.47,17.24,41.32,33.18c6.85,11.08,11.29,23.14,14.16,35.79
		c2.74,12.06,4.24,24.29,5.18,36.61c0.64,8.31,0.77,16.63,0.85,24.95C2716.7,261.31,2716.05,273.36,2714.56,285.35z"/>
	<g>
		<path class="st2" d="M2817.21,390.77c-2.85-1.15-5.87-1.63-8.93-1.67c-4.99-0.06-9.97-0.08-14.96-0.02
			c-3.54,0.04-4.66,0.98-5.39,4.43c-0.72,3.38-1.37,6.78-2.04,10.17c-2.57,13.03-5.15,26.06-7.71,39.09
			c-0.16,0.81-0.22,1.65-0.2,2.47c0.02,1.07,0.68,1.85,1.69,2.09c0.54,0.13,1.09,0.22,1.64,0.22c6.92-0.03,13.86,0.3,20.77-0.25
			c3.91-0.31,7.64-1.46,10.96-3.56c6.34-4.02,9.67-9.74,9.29-17.38c-0.2-4.05-1.98-7.14-5.66-9.02c-0.61-0.31-1.22-0.62-2.26-1.16
			c1.08-0.65,1.8-1.06,2.49-1.52c4.62-3.03,7.06-7.37,7.29-12.84C2824.42,396.4,2822.35,392.84,2817.21,390.77z M2809.9,430.8
			c-0.88,3.54-3.15,5.76-6.45,7.01c-2.45,0.93-9.46,0.94-12.83,0.07c0.9-4.72,1.78-9.46,2.73-14.18c0.31-1.54,0.66-1.8,2.27-1.81
			c2.9-0.03,5.81-0.17,8.7,0.28C2809.16,422.92,2811.1,426,2809.9,430.8z M2812.05,405.03c-0.68,4.33-3.96,7.64-8.31,8.03
			c-2.59,0.23-5.22,0.04-8.26,0.04c0.95-4.89,1.79-9.22,2.62-13.56c0.18-0.96,0.77-1.45,1.71-1.45c2.35,0,4.72-0.11,7.05,0.1
			C2810.92,398.55,2812.69,400.99,2812.05,405.03z"/>
		<path class="st2" d="M3048.98,442.58c-0.36-2.47-0.73-4.94-1.08-7.41c-1.78-12.49-3.54-24.97-5.32-37.46
			c-0.31-2.19-0.64-4.39-1.03-6.57c-0.21-1.21-0.95-2-2.24-2.09c-3.6-0.26-7.21-0.28-10.81,0.01c-1.03,0.08-1.84,0.61-2.41,1.44
			c-0.47,0.68-0.89,1.4-1.28,2.14c-8.91,16.61-17.82,33.22-26.71,49.84c-0.52,0.97-0.96,2-1.33,3.04c-0.38,1.06,0.14,1.89,1.27,2.15
			c2.05,0.47,4.14,0.28,6.21,0.19c2.26-0.1,3.85-1.03,4.84-3.23c1.3-2.9,2.96-5.64,4.33-8.52c0.71-1.49,1.73-1.93,3.28-1.91
			c4.16,0.07,8.32,0.02,12.48,0.02c1.66,0,3.33-0.03,4.99,0.03c1.44,0.05,1.73,0.31,1.92,1.65c0.32,2.19,0.63,4.39,0.88,6.6
			c0.6,5.32,0.73,5.45,7.08,5.46c0.39-0.04,1.78-0.08,3.14-0.31c1.55-0.27,2.15-1.06,2.09-2.6
			C3049.26,444.22,3049.09,443.4,3048.98,442.58z M3033.54,425.01c-4.43,0.01-8.87,0.01-13.3-0.05c-0.66-0.01-0.83-0.62-0.63-1.21
			c0.13-0.39,0.34-0.75,0.53-1.12c3.41-6.65,6.83-13.31,10.25-19.96c0.24-0.47,0.46-1.02,1.39-1.1c0.61,4.45,1.23,8.91,1.81,13.38
			c0.38,2.88,0.71,5.78,1.04,8.67C3034.73,424.41,3034.41,425.01,3033.54,425.01z"/>
		<path class="st2" d="M2922.16,413.83c5.47-5.91,10.94-11.8,16.39-17.72c1.03-1.12,2.05-2.27,2.9-3.53
			c1.26-1.85,0.63-3.32-1.52-3.53c-1.79-0.17-3.6-0.08-5.4-0.15c-2.56-0.1-4.42,0.95-6.08,2.93c-6.23,7.45-12.58,14.79-18.89,22.17
			c-0.09,0.23-0.12,0.56-0.3,0.69c-0.29,0.21-0.67,0.3-1.01,0.44c-0.1-0.36-0.32-0.73-0.27-1.06c0.06-0.34,0.38-0.63,0.59-0.95
			c0.45-2.31,0.88-4.63,1.34-6.94c0.91-4.62,1.86-9.24,2.75-13.86c0.5-2.6,0.04-3.18-2.71-3.36c-1.38-0.09-2.77-0.1-4.16-0.05
			c-3.89,0.14-4.13,0.36-4.95,4.07c-0.15,0.68-0.29,1.35-0.43,2.03c-2.69,13.73-5.38,27.47-8.08,41.21
			c-0.59,2.99-1.2,5.98-1.76,8.98c-0.26,1.42,0.17,2.04,1.62,2.36c2.75,0.6,5.5,0.57,8.23-0.17c0.87-0.24,1.46-0.76,1.67-1.66
			c0.2-0.81,0.43-1.61,0.58-2.43c0.93-4.9,1.78-9.82,2.79-14.71c0.62-3.01,0.96-6.1,1.92-9.03c0.88,0.22,1.05,0.76,1.27,1.26
			c1.11,2.54,2.22,5.08,3.33,7.62c2.45,5.58,4.94,11.15,7.32,16.76c0.61,1.43,1.49,2.28,3.01,2.49c2.63,0.36,5.25,0.46,7.85-0.2
			c1.69-0.43,2.27-1.34,1.8-3.08c-0.32-1.19-0.85-2.34-1.37-3.47c-3.46-7.56-6.93-15.12-10.44-22.66c-0.47-1-0.56-1.8,0.28-2.61
			C2921.06,415.09,2921.59,414.44,2922.16,413.83z"/>
		<path class="st2" d="M2866.89,404.08c-1.65-0.13-3.32-0.14-4.98-0.07c-3.52,0.14-3.73,0.34-4.84,3.89
			c-0.21,0.66-0.44,1.31-0.64,1.97c-2.15,7.04-4.95,13.81-8.57,20.23c-0.54,0.96-1.14,1.89-1.8,2.78c-0.29,0.4-0.82,0.18-1.03-0.14
			c-0.21-0.33-0.24-0.79-0.3-1.2c-1.14-7.95-2.28-15.9-3.42-23.85c-0.1-0.68-0.12-1.4-0.33-2.05c-0.27-0.82-0.83-1.51-1.76-1.53
			c-2.35-0.05-4.71-0.14-7.05,0.04c-1.82,0.14-2.54,1.3-2.39,3.22c0.02,0.28,0.06,0.55,0.11,0.82c0.88,5.19,1.76,10.37,2.64,15.56
			c1.2,7.1,2.39,14.2,3.63,21.29c0.31,1.74,0.05,3.2-1.1,4.63c-2,2.48-3.84,5.09-5.74,7.64c-0.91,1.22-1.87,2.41-2.71,3.68
			c-0.99,1.49-0.42,2.64,1.43,2.87c1.1,0.13,2.21,0.12,3.32,0.18c0-0.02,0-0.04,0-0.07c0.55,0,1.11-0.01,1.66,0
			c3.18,0.07,5.45-1.23,7.2-3.99c2.97-4.67,6.23-9.16,9.4-13.71c7.89-11.32,13.97-23.56,18.51-36.58c0.32-0.91,0.63-1.84,0.8-2.78
			C2869.26,405.08,2868.68,404.22,2866.89,404.08z"/>
		<path class="st2" d="M3000.23,420.7c0.15-0.53,0.21-1.09,0.32-1.63c0.86-4.2,0.67-4.44-3.73-4.45c-4.16-0.02-8.32,0.01-12.48-0.02
			c-1.73-0.01-2.02-0.33-1.73-1.91c0.72-3.95,1.47-7.9,2.28-11.83c0.37-1.79,0.62-1.95,2.55-1.97c4.71-0.03,9.43,0.01,14.14-0.02
			c3.54-0.02,3.86-0.32,4.82-3.79c0.37-1.35,0.62-2.7,0.59-4.1c-0.03-1.25-0.52-1.81-1.69-1.89c-0.55-0.04-1.11-0.02-1.66-0.02
			c-7.62,0-15.25,0-22.87,0c-0.69,0-1.39-0.03-2.08,0.05c-1.82,0.21-3.08,1.18-3.65,2.94c-0.26,0.78-0.41,1.61-0.57,2.42
			c-0.68,3.39-1.34,6.79-2.01,10.19c-2.59,13.18-5.18,26.36-7.77,39.54c-0.11,0.54-0.19,1.1-0.2,1.65c-0.02,0.76,0.34,1.32,1.1,1.54
			c2.73,0.8,5.46,0.7,8.22,0.14c1.39-0.28,2.18-0.97,2.43-2.42c0.47-2.73,1.06-5.44,1.6-8.15c0.84-4.2,1.67-8.41,2.52-12.67
			c1-0.08,1.82-0.21,2.64-0.21c4.3-0.02,8.59,0.01,12.89-0.02C2998.85,424.03,2999.43,423.55,3000.23,420.7z"/>
		<path class="st2" d="M3087.8,437.98c-0.68-0.11-1.38-0.12-2.07-0.12c-3.88-0.01-7.75,0-11.63-0.01c-0.97,0-1.94,0.02-2.9-0.07
			c-0.6-0.05-0.99-0.5-0.97-1.12c0.02-0.69,0.11-1.38,0.25-2.06c1.77-8.96,3.56-17.91,5.31-26.87c1.04-5.29,2.06-10.59,3.02-15.9
			c0.4-2.2-0.01-2.72-2.31-2.83c-2.07-0.1-4.16-0.1-6.22,0.04c-2.01,0.13-2.66,0.76-3.08,2.73c-0.55,2.57-0.99,5.16-1.5,7.74
			c-2.84,14.38-5.69,28.77-8.52,43.15c-0.16,0.81-0.23,1.65-0.21,2.47c0.03,1.24,0.77,2.09,1.99,2.27c0.95,0.14,1.93,0.16,2.9,0.17
			c3.6,0.02,7.2,0.01,10.8,0.01c3.46,0,6.92,0.01,10.39,0c4.29-0.02,4.85-0.5,5.61-4.84c0.19-1.09,0.34-2.19,0.36-3.29
			C3089.01,438.74,3088.59,438.11,3087.8,437.98z"/>
		<path class="st2" d="M2960.7,389.1c-2.21-0.13-4.44-0.2-6.64-0.08c-2.46,0.13-3.07,0.74-3.56,3.23
			c-3.37,17.13-6.72,34.27-10.06,51.4c-0.16,0.81-0.25,1.65-0.26,2.47c-0.01,0.57,0.29,1.02,0.89,1.25
			c1.46,0.56,2.98,0.58,5.35,0.58c0.55-0.08,1.92-0.25,3.29-0.47c1.26-0.2,1.93-1,2.16-2.21c0.11-0.54,0.16-1.1,0.26-1.64
			c2.41-12.24,4.84-24.47,7.24-36.71c1.01-5.17,1.99-10.34,2.94-15.52C2962.58,389.98,2962.05,389.18,2960.7,389.1z"/>
		<path class="st2" d="M2909.56,414.01c-0.53-0.06-0.73-0.5-0.97-0.88l0,0c0,0,0,0,0,0
			C2908.32,414.08,2908.68,414.33,2909.56,414.01z"/>
	</g>
</g>
</svg>
