<svg id="Calque_1" data-name="Calque 1" xmlns="http://www.w3.org/2000/svg" xmlns:xlink="http://www.w3.org/1999/xlink"
     viewBox="0 0 385.41 340.6">
    <defs>
        <clipPath id="clip-path" transform="translate(-102.58 -89.19)">
            <polygon
                    points="448.86 177.8 115.28 269.38 79.8 256.71 61.51 318.3 102.41 384.23 110.11 480.94 293.44 467.47 502.75 401.07 501.3 308.68 499.38 240.83 493.12 186.46 466.66 163.37 448.86 177.8"
                    style="fill:none"/>
        </clipPath>
    </defs>
    <path d="M357.06,224a8.22,8.22,0,1,1-10-5.92A8.22,8.22,0,0,1,357.06,224Z" transform="translate(-102.58 -89.19)"
          style="fill:#606fb4"/>
    <path d="M237.8,254.54a8.22,8.22,0,1,1-10-5.93A8.21,8.21,0,0,1,237.8,254.54Z" transform="translate(-102.58 -89.19)"
          style="fill:#606fb4"/>
    <path d="M147,261.07a56.75,56.75,0,0,1,6.22-1.19q-.3-5.87-.11-11.68l.19.08a42.47,42.47,0,0,0,29-79.81h0a136.31,136.31,0,0,1,34.26-31,42.47,42.47,0,0,0,81.78-21,136.44,136.44,0,0,1,46,11.16A42.45,42.45,0,0,0,407.78,184q2.73,4.68,5.11,9.62a56.59,56.59,0,0,1,6-1.95,55.64,55.64,0,0,1,26.55-.28l0,0a168.09,168.09,0,0,0-321.94,82.14h0A55.78,55.78,0,0,1,147,261.07Z"
          transform="translate(-102.58 -89.19)" style="fill:#606fb4"/>
    <path d="M261.81,265.78a35.71,35.71,0,1,1,61-15.63L335,247a47.17,47.17,0,1,0-85.37,21.86Z"
          transform="translate(-102.58 -89.19)" style="fill:#606fb4"/>
    <g style="clip-path:url(#clip-path)">
        <path d="M485.77,240.75c-.22-1-.6-2-.94-3.06l-1.26,1.89a2.11,2.11,0,0,1,.27-1.67,2.89,2.89,0,0,0,.38-2.9c-1-3.74-2-7.47-3.08-11.19-.86-3.09-1.78-6.16-2.62-9.25-1.15-4.21-2.25-8.43-3.38-12.65q-1.33-5-2.68-10c-.9-3.33-2-6.57-4.48-9.11-1-1-1.79-2.5-3.55-1.19-.07.05-.24,0-.55-.09l1.66-.93a17.3,17.3,0,0,0-9.83-3.38c-3.92-.1-7.51,1.44-11.22,2.36-4.22,1.06-8.4,2.28-12.46,3.4-3.37-4.67-6.57-9.3-10-13.76a122.41,122.41,0,0,0-10.93-12.5l-2.67.51-.09-.4,2.07-.88A163.3,163.3,0,0,0,374,128.11l-1.71,2.66-.3-.22a17.85,17.85,0,0,1,.95-2c.43-.71.12-1.06-.47-1.37-2-1-3.9-2.09-5.89-3a136,136,0,0,0-21.86-8.74c-6.49-1.83-13-3.54-19.59-5.06a85,85,0,0,0-10.44-1.53c-5.28-.52-10.58-1-15.88-1.21-4.46-.15-8.95.14-13.42.28a2.84,2.84,0,0,0-1.09.51,11.67,11.67,0,0,0-2.44-.3,170.56,170.56,0,0,0-24.19,3.94c-.71.16-1.29.86-2,1-1,.25-2.16.1-3.17.4-3.92,1.16-7.81,2.41-11.7,3.68a2.11,2.11,0,0,0-1.22,1,3.42,3.42,0,0,0-.07,1.69c.13,1.28.32,2.55.49,3.83-1.27-1.59-1.3-3.51-1.59-5.63a160.21,160.21,0,0,0-54.61,34.35,159.37,159.37,0,0,0-21.18,24.91A163.18,163.18,0,0,0,147,205.71a165.34,165.34,0,0,0-9.71,31.1c.65.18,1.25.33,1.83.51s1.39.22,1.54.57c.78,1.78,2.6,1.36,3.89,2.27a154.55,154.55,0,0,1,14-40.84l-2.37-1.62c.09-.21.19-.41.28-.62l2.89.59a.85.85,0,0,0,.18-.21c2.27-3.94,4.37-8,6.85-11.81a150.66,150.66,0,0,1,24.83-29.59c2.07-1.88,4.16-3.73,6.32-5.51s4.41-3.57,6.71-5.22a72.62,72.62,0,0,1,6.58-4.69c5.46-3,10.79-6.27,16.29-9.19a116.19,116.19,0,0,1,11-5c3.58-1.45,7.24-2.73,10.92-3.89s7.63-2.18,11.54-3.27l-2.26-1.86.72-1.71a20.6,20.6,0,0,0,1.81,1.75,5.55,5.55,0,0,0,2.23,1.25,9.35,9.35,0,0,0,2.76-.42c3.92-.66,7.82-1.54,11.78-1.91,5.68-.52,11.4-.72,17.11-1a104.91,104.91,0,0,1,19.64,1.16c5,.74,10,1.43,14.84,2.61,6.07,1.46,12.11,3.15,18,5.2a130.15,130.15,0,0,1,20.46,9.18c.66.36,1.41,1,2,.9s.93-1,1.38-1.62l.3,0-.34,2.45c1.25.75,2.59,1.49,3.86,2.33,4,2.63,7.86,5.3,11.81,7.92a2.1,2.1,0,0,0,1.37.12c.89-.15,2.64,1.13,2.23,1.71-.57.79,0,1,.38,1.25a149.21,149.21,0,0,1,18.36,17.09c1.21,1.33,2.45,2.66,3.52,4.1s2.32,2.4,3.25,3.83c1.33,2,2.92,3.89,4.34,5.87,1.27,1.78,2.45,3.62,3.69,5.45l-1.91.84c.5.1.64.12.76.16s.19.12.06,0c-1.48.21-3.07.51-4.66.64-1.31.11-2.34.91-3.67,1.15-4.4.81-8.69,2.22-13,3.41L384.07,196c0,1.06-.35,1.34-1.19,1a3,3,0,0,0-1.53-.2c-1.66.32-3.28.81-4.94,1.12a1.73,1.73,0,0,1-1.31-.43c-1.25-1.25-2.35-2.66-3.64-3.87-2.59-2.45-5.19-4.9-7.92-7.19a104.26,104.26,0,0,0-23.43-14.77c-2.22-1-4.49-1.94-6.73-2.91l-.26.31,3.4,5.52-.23.15c-1.22-1.49-2.44-3-3.9-4.78-.73,1.32-1.24,2.26-1.86,3.39a102.85,102.85,0,0,1,39.36,26.33c-1,.82-1.83.9-2.67,0-.7-.77-1.47-1.48-2.14-2.14-2,1.27-.95,2.42-.22,3.21a29.93,29.93,0,0,0-1.48,2.93c-.55,1.48-1.31,2.68-3,3.07a3.25,3.25,0,0,0-.79.42c.28.61.76,1.42.66,1.51-1,.79-.56,1.37.1,2.06a1.35,1.35,0,0,1,.18,1.07c-.05.15-.58.16-.88.27s-.76.22-.95.48a14.68,14.68,0,0,0-1,1.75c-.88,1.66-1.2,1.78-2.66,1.05.49-1,.93-2.08,1.49-3.06.14-.25.67-.25,1-.45s.8-.59.75-.75c-.36-1.1-.25-2.42-1.48-3.15a2.34,2.34,0,0,1-.81-1.17,3.3,3.3,0,0,1-.11-1.37,1.06,1.06,0,0,1,.67-.17,9.5,9.5,0,0,1,.55,1.21c.15.33.26.76.52.95a1,1,0,0,0,1,0,43.74,43.74,0,0,0,3.16-3.37,1.38,1.38,0,0,0,.07-1.33,1.65,1.65,0,0,0-1.35-.26c-1.72.4-3.42.88-5.12,1.36-.3.09-.81.36-.8.52.08,1-.67.95-1.24.89a9.13,9.13,0,0,0-3.76.36c-4.39,1.3-8.87,2.31-13.3,3.46-3.27.86-6.54,1.74-9.78,2.68-.31.09-.63.77-.62,1.16a14.68,14.68,0,0,1-1.26,6.33c-.44-3.17-2.62-2.37-4.47-2.59,3.27.25,5.22-.89,5.05-4.4-.07,0-.26-.11-.41-.07-3.22.87-6.43,1.76-9.65,2.64-1.63.45-3.27.87-4.9,1.32a43.62,43.62,0,0,1-4.94,1.36c-1.56.25-2.94,1-4.49,1.32-4.3.94-8.48,2.4-12.76,3.44a2.6,2.6,0,0,0-2.19,2.12,17.12,17.12,0,0,0-.25,2.22l-.34.06-.17-3.54c-1.38.34-2.58.65-3.79.93a4,4,0,0,0-2.47,1.74,9.14,9.14,0,0,1-1.76,1.56l-.24-.27,2-1.7c-.14-.16-.29-.32-.43-.49-2.09.55-4.17,1.09-6.25,1.65-3.57,1-7.16,1.87-10.7,2.92-1.3.39-3.18.22-3.25,2.41-.09-.46-.18-.91-.29-1.45-1,.29-1.8.57-2.66.8-4.33,1.16-8.68,2.29-13,3.49a2.37,2.37,0,0,0-1.31,1,29.08,29.08,0,0,0-1.24,3.06c-1.84-1,.35-2.2,0-3.38l-12,3.29,2,2.46-.32.3a11.78,11.78,0,0,1-1.49-1.6,1.71,1.71,0,0,0-2.21-.67c-2.84.77-5.72,1.4-8.49,2.38-2.19.78-5.18.25-6.24,3.31,0-.46-.09-.93-.15-1.56l-10.15,2.74c.5-1.74,1-3.21,1.31-4.72a18.44,18.44,0,0,0-.07-2,3.76,3.76,0,0,1,.56-1.55c.25-.4.85-.63,1-1a91.29,91.29,0,0,1,7.23-15.92c.61-1,1.18-2.11,1.77-3.17l-.21-.18-.64.31c.21-.68.55-1.38,1-1.53,1.93-.57,2-2.49,3-3.71-1.84,1.11-3.87,1.77-5.09,3.84a99,99,0,0,0-8.72,18.22c-1.5,4.37-2.79,8.82-4.18,13.23,0,.05-.15.06-.3.12-.07-.33-.14-.65-.21-.95l-1.21.06c1.11-3.74,2.13-7.36,3.29-11a1.79,1.79,0,0,0-.57-2,1.85,1.85,0,0,0-2.13-.66c-1,.29-2.25.15-2.62,1.62-1.06,4.17-2.25,8.3-3.24,12.49a2,2,0,0,1-1.67,1.66c-3.65,1-7.3,2-10.95,3-3.26.88-6.54,1.72-9.78,2.67a6.82,6.82,0,0,0-1.71,1.2l.22.39-2.55.52c.21-.42.35-.7.61-1.24l-2.29.8.07.37,1.45.31c.12,2.49,4.68,4.86,6.92,3.64l1.27,2.66-1.53.86c-.23-1.06-.46-2.27-2-2.48a8,8,0,0,1-2.16-.57,25.82,25.82,0,0,1-3-1.69c-.47-.3-.78-.84-1.23-1.19s-1.15-.79-2-1.38c-4,1.24-8.5,2.06-12.86,4,.34.53.81.73,1.14,1.07s.72.84.65,1.19c-.26,1.38-.69,2.74-1.06,4.11l-.36-.08a4.78,4.78,0,0,1-.07-.65,1.28,1.28,0,0,1,.09-.51c.62-1.46.62-1.46-.92-1.4-.26,0-.51,0-1,0,.14-.81.28-1.52.4-2.23s.25-1.37.3-2-.07-1.62,0-2.41c.44-3.89.76-7.8,1.44-11.64,1-5.47,2.09-10.92,3.39-16.31a127.73,127.73,0,0,1,8.1-22.77,151.44,151.44,0,0,1,17.06-28.7A145.65,145.65,0,0,1,195,158.3c4-3.61,8.36-6.84,12.56-10.25a3,3,0,0,0,.55-3.36c-3.26,2.58-6.53,5.12-9.75,7.72a143.46,143.46,0,0,0-22.63,23.38,152,152,0,0,0-14.19,22A9.94,9.94,0,0,0,161,200c-.21.14-.7.28-.87.59a32.44,32.44,0,0,0-1.75,3.61c-2.48,6.25-5.11,12.45-7.32,18.81-1.62,4.68-2.65,9.56-4,14.35a8,8,0,0,0,.51,4.81c-1.29-.49-1.51.15-1.63,1.18-.33,2.83-.84,5.64-1.15,8.47-.34,3.23-.55,6.47-.82,9.7l-2,.66c.14-2.18.28-4.15.4-6.12.07-1.23,0-2.48.18-3.68.55-3.6,1.22-7.17,1.8-10.77a1,1,0,0,0-.4-.83c-.27-.09-.66.12-1,.26s-.31.29-.75.74c.2-.76.29-1.14.41-1.58l-3.17-1.62a2.4,2.4,0,0,0-.38-.12c-1.58-.51-2.22-.06-2.42,1.57s-.49,3.26-.69,4.9c-.49,3.89-1,7.77-1.4,11.67-.2,2.13-.13,4.29-.15,6.43a1.33,1.33,0,0,1-1.17,1.5q-3.1.72-6.17,1.57c-3.93,1.08-7.82,2.33-11.77,3.3a17,17,0,0,0-11.83,21.81c1.29,3.83,2.09,7.82,3.12,11.74.24.9.54,1.79.83,2.71l5.27-2.56c.08.17.17.34.26.51l-5.34,2.89a.9.9,0,0,0,0,.33c1.24,4.41,2.53,8.81,3.74,13.24s2.28,8.6,3.44,12.9c.82,3.05,1.65,6.1,2.55,9.12s1.53,6.28,3,9.09c2.86,5.66,7.81,8.52,14.11,9.06.91.08,1.57-.28,1.6-1.17a3.2,3.2,0,0,0-.64-1.64,13.82,13.82,0,0,0-1.3-1.54l2.57-2.42c-.23,1.79.07,2.09,1.23,1.62a2.62,2.62,0,0,1,2.93,1.11c.56,1.07-.21,1.62-.91,2.28-.18-.14-.31-.34-.44-.33a9.7,9.7,0,0,0-2,.19,1.33,1.33,0,0,0-.08,1c.4.86,1.08.66,1.83.42,1.39-.46,2.81-.83,4.23-1.22q7.08-1.95,14.17-3.85c.52-.14,1-.43,1.57.4a160.51,160.51,0,0,0,17.66,23,157.29,157.29,0,0,0,24.71,21.75c3.65,2.57,7.41,5,11.07,7.42l1.27-.93.15.14c-.2.31-.4.62-.62,1a4.89,4.89,0,0,0,.76.59c4.43,2.32,8.79,4.78,13.31,6.89,4.24,2,8.61,3.72,13,5.34,4,1.47,8.05,2.8,12.16,3.92s8.28,2,12.47,2.81c4.56.85,9.14,1.59,13.74,2.08,4.22.45,8.47.66,12.71.71,5.47.06,11,0,16.41-.28a74.85,74.85,0,0,0,7.58-1c3.31-.47,6.65-.84,9.93-1.49,3.93-.79,7.83-1.75,11.7-2.79s7.63-2.13,11.37-3.41,7.27-2.63,10.78-4.24c1.43-.65,3.95-.46,3.59-3.24.3,0,.56,0,.73-.09a10.93,10.93,0,0,0,2.31-1.57c.16-.17-.39-1.12-.72-1.64-.75-1.16-.65-1.72.48-2.7a5.93,5.93,0,0,0,2.47-3.65,156.82,156.82,0,0,1-71.85,18.47l.12,2.41-.29,0c-.07-.76-.15-1.52-.22-2.28a1.29,1.29,0,0,0-.39-.11c-6.15-.4-12.31-.69-18.45-1.21a104.85,104.85,0,0,1-10.58-1.52c-3.53-.68-7-1.67-10.5-2.47a11.68,11.68,0,0,0-2.14-.1l.43-.33-1.14-.36c-4.89-1.66-9.8-3.25-14.66-5a68.6,68.6,0,0,1-7.41-3.23c-4.82-2.44-9.57-5-14.36-7.53a2.66,2.66,0,0,0-1-.18,16.28,16.28,0,0,0-1.41-1.3c-5-3.57-10-7.16-15.08-10.64-1.64-1.12-2.77-3.51-5.45-2.54.37-.32.73-.65,1.18-1.06l-9.68-8.17.25-.37-.72.76c.55-1.76-1-1.81-1.68-2.43s-1.52-.7-1-1.85c.08-.17-.3-.58-.51-.85-4.2-5.29-8.42-10.57-12.59-15.88-.87-1.11-1.56-2.36-2.36-3.58l1.82-.64A148.93,148.93,0,0,0,182,369.23l1.81-1-13-16.84,2.68-1.48a2.72,2.72,0,0,0,1.07.19c2.07-.53,4.12-1.11,6.18-1.68,4.33-1.21,8.65-2.45,13-3.63,4.08-1.12,8.17-2.17,12.26-3.26,2.58-.69,5.14-1.44,7.74-2.07a2.09,2.09,0,0,1,1.67.3c1.59,1.49,3,3.15,4.59,4.64,2.7,2.55,5.36,5.15,8.22,7.5a106.36,106.36,0,0,0,22.5,14c1.43.67,2.9,1.24,4.45,1.9.41-1.68.81-3.13,1.08-4.6.05-.27-.34-.76-.65-.91q-5.94-3.09-11.93-6.07a7.06,7.06,0,0,0-2.57-.72,23.37,23.37,0,0,0-3.54.16,2.15,2.15,0,0,0-1.19.4c-.66.63-1.08.39-1.6-.35l2.39-2.09c.62,2,2.19,2.43,3.92,1.08a100.07,100.07,0,0,1-20.4-17c1.27-.83,2.1-.67,3.15.48,1.91,2.1,4.12,3.92,6.22,5.84a.86.86,0,0,0,.7.14c.66-.18,1.3-.43,2.24-.76l-8-6.7a5.86,5.86,0,0,1,1-.71l10-2.68q8.32-2.24,16.63-4.51c4.29-1.18,8.56-2.43,12.86-3.6,4-1.08,8-2.08,12-3.15,3.57-.95,7.14-1.9,10.68-2.95.57-.17,1-.8,1.36-1.1a9.19,9.19,0,0,0,2.4.07c2-.47,3.93-1.16,5.9-1.7,5.55-1.49,11.12-2.9,16.64-4.47A42.26,42.26,0,0,0,320,309.7a1.31,1.31,0,0,0,.49-.81c.12-.43,0-.92.2-1.32s.46-.45.7-.67c.15.25.43.49.45.75,0,.69,0,1.39,0,2.31l16-4.36c-.25-2-.25-2,.65-2.43-.18,1.85.44,2.28,2.26,1.63.63-.23,1.3-.32,1.94-.5,3.13-.87,6.24-1.78,9.37-2.64,2.65-.72,5.31-1.39,7.86-2.05.1-1.26.19-2.31.27-3.36l.43,0,.15,3.09,18.31-5c-.13-.64-.23-1.12-.31-1.5.52.38,1,1,1.53,1.06a5.8,5.8,0,0,0,2.06-.45l7.91-2.14c-1.25,4-2.27,7.6-3.58,11.12-.61,1.63.26,2.33,1.16,3.36a5,5,0,0,0,.33-.68c1.4-4.42,2.84-8.83,4.15-13.28a1.8,1.8,0,0,1,2.2-1.48,2.91,2.91,0,0,1,0,.48A97.89,97.89,0,0,1,389,308.06a3.19,3.19,0,0,0,0,1.84c.4,1.92,2.19,3.37,1.86,5.54,0,.12.17.27.34.51a103.77,103.77,0,0,0,9.18-27.41l33.2-9.05-.06-.38c-1.68-.46-3.58,1.39-5.36-.37,1.15-.4,2.05-.78,3-1a2.72,2.72,0,0,1,2.89.45,2.45,2.45,0,0,0,2.89.46c1-.37,2.05-.61,3.08-.9l4.3-1.18a149.67,149.67,0,0,1-5.94,34.52c1.75.94,2.34.67,2.75-1,.52-2.16,1.29-4.26,1.63-6.44.44-2.93,2.24-5.76.8-8.66.42-.23,1-.37,1-.61.36-1.71,1.07-3.44.27-5a6.3,6.3,0,0,0,.8-1.72c.36-3.46.63-6.94.93-10.4.13-1.52.35-1.68,2-1.45-.28,11.91-2.52,23.51-5.63,35,.29,0,.43.1.54.06.58-.16,1.21-.42,1.33.46,0,.12-.81.31-1.2.55a3.42,3.42,0,0,0-1.32,1,18.58,18.58,0,0,0-.79,2.39c-1.74,4.73-3.27,9.56-5.32,14.15-2.37,5.35-5.11,10.56-7.88,15.72-1.67,3.1-3.68,6-5.58,9-1.1,1.74-2.29,3.42-3.44,5.12l.18.37,1.73-.24c.6.44,1,.93,1.39,1,1.32.21,2.68.17,4,.4a1.37,1.37,0,0,0,1.64-.74c2.58-4.17,5.4-8.21,7.73-12.51,2.83-5.23,5.39-10.63,7.83-16.06,1.78-3.95,3.23-8,4.69-12.12.9-2.53,1.56-5.15,2.32-7.72l-1.64-.83c.66-.6,1.22-1.1,1.76-1.62.24-.23.6-.49.63-.77.25-2.39.43-4.79.64-7.22.37-.35,1.23-.77,1.34-1.33.67-3.4,1.23-6.83,1.69-10.27.4-2.94.62-5.91.88-8.87a20.17,20.17,0,0,0-.1-2.41,13.16,13.16,0,0,0,.46-2.15,22,22,0,0,0-.11-2.88c3.32-.87,6.49-1.67,9.65-2.54,1.37-.38,2.49-1.23,4.08-1.32,2-.11,4-1.07,6-1.68a16.58,16.58,0,0,0,2.53-.81,17.2,17.2,0,0,0,5.93-4.82,14.67,14.67,0,0,0,3.5-10.21C487.68,248.13,486.56,244.45,485.77,240.75Z"
              transform="translate(-102.58 -89.19)" style="fill:#606fb4"/>
        <path d="M256.86,368.37c2,.79,4.07,1.49,6.13,2.16.57.18,1.25,0,1.82.23.76.26,1.42.88,2.19,1.06,3.28.77,6.57,1.55,9.89,2.09,3.78.63,7.58,1.1,11.39,1.46a51.48,51.48,0,0,0,7.24.14c5.09-.26,10.21-.44,15.25-1.12a108.74,108.74,0,0,0,12.93-2.8,103.19,103.19,0,0,0,10.41-3.32c3.06-1.16,6-2.63,9-4a101.55,101.55,0,0,0,16.64-10.18,1.33,1.33,0,0,0,.52-1.89,6.09,6.09,0,0,1-.64-3.79,22.69,22.69,0,0,1,.67,2.18c.22.75.47,1.49.79,2.46a106.08,106.08,0,0,0,26.87-31.09l-.71-.17a8.65,8.65,0,0,0,1.6-1.38,16.4,16.4,0,0,0,1.46-2.71,1.83,1.83,0,0,0,.13-1.23c-.76-1.93-1.59-3.83-2.44-5.85-.25.44-.49.81-.68,1.2-.84,1.72-1.57,3.49-2.51,5.14a112,112,0,0,1-12.52,18.13A95.19,95.19,0,0,1,359,348c-4.45,3.48-9.39,6.32-14.14,9.43-.6.4-1.25.65-.76,1.6.11.22-.22.67-.49,1.41-.6-1.6-1.18-1.69-2.37-1.09-2.93,1.47-6,2.7-9,4-1.51.64-3.07,1.19-4.47,1.73.5.8,1.27,1.47,1.29,2.15,0,1.28.61,1.32,1.53,1.12l1.3-.29a2.53,2.53,0,0,1-4.21-.47,3,3,0,0,0-3.86-1.39,54.25,54.25,0,0,1-6.05,1.66c-4.89.86-9.79,1.69-14.71,2.26-5.84.68-11.69.25-17.54-.22A101.77,101.77,0,0,1,269,366.91c-1.37-.35-2.59-1-3.21.9,0,0-.15,0-.41.07.2-.6.36-1.12.58-1.78-.41-.18-.73-.34-1.06-.45-1.76-.61-3.54-1.15-5.27-1.83s-2.4-.49-3,1.34a7.18,7.18,0,0,0-.45,2.07A1.45,1.45,0,0,0,256.86,368.37Z"
              transform="translate(-102.58 -89.19)" style="fill:#606fb4"/>
        <path d="M423.72,361.09c-2.62-.65-3-.49-4.52,1.73a15.46,15.46,0,0,1-1.11,1.34c1.32-3.06,1.32-3.06.37-3.81a1.9,1.9,0,0,0-.4.3c-2,2.56-4.09,5.1-6.1,7.69a2.67,2.67,0,0,0-.24,1.21c-.09.71-.16,1.42-.24,2.14l-.37-.05-.73-1.37a10.4,10.4,0,0,0-.87.82,150.51,150.51,0,0,1-34.95,29c-1.38.83-3.2,1.41-3.73,3.35-.6,2.18-1.33,4.31-1.94,6.3L367,410c.14,1,.26,1.84.42,2.92,2.45-1.29,4.77-2.44,7-3.71a141.49,141.49,0,0,0,21.89-14.91c5.67-4.8,11-10,16.4-15.11.37-.35,1-.88.91-1.21-.22-1.11.64-1.19,1.21-1.58a6.57,6.57,0,0,0,1.13-.88c2-2.34,4.05-4.67,6-7.07,1.66-2.06,3.18-4.22,4.82-6.42-.67-.25-1.15-.47-1.65-.62S424.19,361.21,423.72,361.09Z"
              transform="translate(-102.58 -89.19)" style="fill:#606fb4"/>
        <path d="M240,407.19c-1.07-.41-1.24.46-1.46,1.08a1.13,1.13,0,0,0,.38,1,16.64,16.64,0,0,0,2.3,1A158,158,0,0,0,264.44,417c1.78.36,3.6.5,5.37.88,1.32.28,2.57.95,3.95.26.16-.09.47.12.71.2a11.12,11.12,0,0,0,2.1.67c2.31.26,4.62.48,6.93.61,4.06.23,8.12.57,12.18.54a140.81,140.81,0,0,0,26.55-2.53,2.56,2.56,0,0,0,.95-.57,9.11,9.11,0,0,0,2.12.05c3.78-.88,7.54-1.79,11.29-2.77,1.76-.46,3.45-1.28,5.23-1.58s3.08-1.3,4.76-1.68a35.72,35.72,0,0,0,6.7-2.53c4.87-2.22,9.69-4.55,14.53-6.86,1.61-.77,1.84-1.3,1.5-3.26a4.23,4.23,0,0,0-.88.24c-4.42,2.17-8.79,4.43-13.25,6.51a107.76,107.76,0,0,1-15.79,6c-4.28,1.23-8.6,2.3-12.94,3.31-3.17.73-6.38,1.38-9.6,1.82-4.44.6-8.9.95-13.35,1.44a4.59,4.59,0,0,0-1.12.5c-.16-.09-.48-.41-.78-.4-2.49.09-5,.25-7.45.37a3.71,3.71,0,0,1-.85-.19c-.92-.19-1.87-.54-2.55.3-.32-.19-.65-.55-1-.58-1.77-.14-3.57-.12-5.34-.29-4.35-.42-8.72-.77-13-1.44a112,112,0,0,1-11.61-2.49c-5.09-1.38-10.11-3-15.15-4.59C243,408.44,241.52,407.79,240,407.19Z"
              transform="translate(-102.58 -89.19)" style="fill:#606fb4"/>
        <path d="M369.69,398.07c.55.62,1,1.12,1.54,1.76,2.38-1.47,4.94-3,7.42-4.6A136.54,136.54,0,0,0,398,380.07c3.83-3.66,7.43-7.54,11.1-11.37a3.17,3.17,0,0,0,.47-1.26,4.51,4.51,0,0,0,1.26-.8c1.78-2.15,3.46-4.39,5.27-6.51.7-.81,1-1.4-.3-2.11.75-.42,1.29-.7,1.8-1a4.76,4.76,0,0,0,1.53-1.16c3.29-5.24,6.76-10.4,9.69-15.84s5.33-11,7.76-16.66c1.35-3.12,2.28-6.42,3.37-9.65a.93.93,0,0,0-.22-.83,1.44,1.44,0,0,0-2.27,1,9.18,9.18,0,0,1-.23,1c-2.57,6.27-5,12.62-7.76,18.79A128.31,128.31,0,0,1,416.16,356c-1.32,1.83-2.67,3.65-4,5.52l.49.13c-.7.61-1.51,1.21-2.2,1.91s-1.24,1.52-1.9,2.24c-3.09,3.38-6.19,6.74-9.26,10.08L401,377a3.47,3.47,0,0,1-.93.16c-1.94-.5-3.14.66-4.32,1.88-.37.39-.79.72-1.19,1.08a141.18,141.18,0,0,1-20.18,15.06C372.79,396.12,371.23,397.11,369.69,398.07Z"
              transform="translate(-102.58 -89.19)" style="fill:#606fb4"/>
        <path d="M303.86,347.33a32,32,0,0,0,4.64-.58c2.64-.75,4.69-.43,6.27,2.1a31.06,31.06,0,0,0,3.5,3.93c.4-2.2.82-4.06,1.07-5.94s.82-3,2.73-3.57a54.44,54.44,0,0,0,5.81-2.49c-1.58-.88-2.85-1.51-4-2.25-1.47-.91-3.22-1.39-4.16-3.08-.56-1-1.35-1-2.41-.09a2.3,2.3,0,0,1-2.68.53,3.84,3.84,0,0,0-3.67.44c-.31.19-.83,0-1.25,0,.13-.42.14-1,.43-1.23a19,19,0,0,1,2.4-1.42L304.81,332a8.54,8.54,0,0,0,.32,1.26c.75,1.61,1.49,3.22,2.31,4.79a2.88,2.88,0,0,1-.08,3.3C306.13,343.16,305.13,345.13,303.86,347.33Z"
              transform="translate(-102.58 -89.19)" style="fill:#606fb4"/>
        <path d="M373.47,328.32l1.64.05a81.24,81.24,0,0,1-11.87,13.22c-4.43,3.85-9.07,7.47-13.77,11.31l-.67-1.28-.69-1.05a87.51,87.51,0,0,0,12.69-9.78,91.78,91.78,0,0,0,11.88-13,4,4,0,0,1,.55-.53C373.31,327.58,373.39,327.94,373.47,328.32Z"
              transform="translate(-102.58 -89.19)" style="fill:#606fb4"/>
        <path d="M348.11,350.57l.69,1.05a1.74,1.74,0,0,1-.13.32c-.26.5-.41,1.23-.82,1.45-5.05,2.62-10.11,5.24-15.24,7.69-1.06.5-2.22,1.61-3.66.68-.11-.07-.54.25-.75.47a3.89,3.89,0,0,1-3.85,1.24.62.62,0,0,0-.49,0c-2,2-4.74,1.63-7.09,2.49-.37.13-.77.19-1.28.32-.07-.76-.14-1.45-.24-2.46,2.15-.35,4.28-.65,6.38-1.08a14.83,14.83,0,0,0,2.19-.93c3.06-1.17,6.22-2.14,9.2-3.5,4.4-2,8.81-4.09,13-6.52C346.72,351.42,347.42,351,348.11,350.57Z"
              transform="translate(-102.58 -89.19)" style="fill:#606fb4"/>
        <path d="M281.92,342.19c-1.08.8-2.07,1.71-3.35,2.77,1.92.43,3.46.82,5,1.11a2.29,2.29,0,0,1,2.12,1.64c.49,1.59,1.21,3.11,2,5.11,1.14-2,2.08-3.7,3.26-5.81l7.06-.34c-1.38-1.63-2.4-3-3.56-4.16a2.06,2.06,0,0,1-.65-2.24c.49-1.67.85-3.39,1.33-5.38-.73.28-1.18.44-1.62.62-1.18.49-2.4.91-3.54,1.5a1.91,1.91,0,0,1-2.21-.28c-.88-.61-1.82-1.15-2.91-1.83A6,6,0,0,0,285,336c.36,1,.43,1.92-.94,2.27a.83.83,0,0,0-.37.73C284.11,340.62,283,341.37,281.92,342.19Z"
              transform="translate(-102.58 -89.19)" style="fill:#606fb4"/>
        <path d="M340.68,322.79a25.17,25.17,0,0,0-1.95-4,33.18,33.18,0,0,0-1.9,3.75,3.55,3.55,0,0,1-3.82,2.64,13.45,13.45,0,0,0-2,.14c-.59.08-1.17.23-2,.39,1.3,1.33,2.33,2.54,3.52,3.54a2.61,2.61,0,0,1,.87,2.94c-.35,1.53-.58,3.1-.86,4.68,2.69-.53,4.37-3,7-2.45a9.8,9.8,0,0,1-.4-1.89c0-1.44.1-2.88.13-4.32,0-.68-.06-1.36-.09-2l.37-.09c.21.25.6.49.61.75a15.8,15.8,0,0,1-.05,4.24c-.32,1.35-.21,2.13,1.06,2.42a4.84,4.84,0,0,0,.05,1,13.2,13.2,0,0,0,2.43.19,2.68,2.68,0,0,0,.15-1.25c-.29-1.7-.48-3.26,1.31-4.45a27.33,27.33,0,0,0,3.3-3.13c-1.38-.18-2.43-.28-3.46-.46C343.22,325.06,341.32,325.12,340.68,322.79Z"
              transform="translate(-102.58 -89.19)" style="fill:#606fb4"/>
        <path d="M236.18,408l1-1.89a161.85,161.85,0,0,1-31-17.69c-.1.74-.17,1.28-.25,1.83a8.79,8.79,0,0,0-1-2.47A25.29,25.29,0,0,0,201.8,385c-1.53-1.25-1.55-1.23-3.1.26C205.19,391.71,229.3,406.37,236.18,408Z"
              transform="translate(-102.58 -89.19)" style="fill:#606fb4"/>
        <path d="M259.23,361.66c4.88,1.46,9.71,3.15,14.66,4.27,4.72,1.06,9.56,1.56,14.36,2.2,1.74.24,2.07-.29,1.66-1.95-1.08-.17-2.11-.35-3.15-.49-3-.41-6-.65-9-1.25-3.79-.76-7.55-1.73-11.29-2.76-2.42-.67-4.76-1.61-7.13-2.43-.23.67-.45,1.35-.69,2.07A2.45,2.45,0,0,0,259.23,361.66Z"
              transform="translate(-102.58 -89.19)" style="fill:#606fb4"/>
        <path d="M270.27,335.62a2.6,2.6,0,0,1,1.67-.24c1.32.2,1.69-.54,1.91-1.69-1.55.15-3.17.75-4.41.3s-2.1-2-3.22-3.11c-.39,1.55-.37,3.26-1.2,4.28s-2.54,1.42-4,2.17c1.08.61,2,1.14,2.93,1.63a1.83,1.83,0,0,1,1.19,1.71,35.2,35.2,0,0,0,.47,3.63c1.07-1,1.89-1.86,2.83-2.57a2.46,2.46,0,0,1,1.61-.37c1.15.13,2.27.43,3.65.7l-1.78-3.84c-1.08-.22-2.07-.13-2.44-.56C268.69,336.78,269.6,336.07,270.27,335.62Z"
              transform="translate(-102.58 -89.19)" style="fill:#606fb4"/>
        <path d="M351.8,307.54a17.85,17.85,0,0,1-.35,1.87,7.7,7.7,0,0,1-1,2.74c-.52.59-1.59.69-2.4,1.05a11.9,11.9,0,0,0-1.18.71l.14.21,4.13-.48.24.31-1.17,1.76.28-.11c.3,1.69.6,3.38.93,5.21,1-.91,1.85-1.75,2.78-2.48a2,2,0,0,1,1.32-.32c1.2.16,2.4.43,3.65.67a1.92,1.92,0,0,0,0-.55c-.18-.41-.38-.81-.59-1.2-1.13-2.14-1.13-2.14-2.82-.73l-.09-1.88,1.56.47c.6-1,1.18-2,1.69-3a5.12,5.12,0,0,0,.31-1.18,3.45,3.45,0,0,0-1.13-.13c-1.61.4-3.21.86-4.74,1.27C354.06,309.31,354.06,309.31,351.8,307.54Z"
              transform="translate(-102.58 -89.19)" style="fill:#606fb4"/>
        <path d="M291.44,368.21c6.31.7,19.24-.58,23.54-2,0-2,0-2.11-1.86-1.81-.88.15-1.74.47-2.63.54-5.53.41-11.06.82-16.61,1.13C291.83,366.18,291.83,366.06,291.44,368.21Z"
              transform="translate(-102.58 -89.19)" style="fill:#606fb4"/>
        <path d="M373.29,327.14l-.07,0h0l0,.06,0,0Z" transform="translate(-102.58 -89.19)" style="fill:#1d71b8"/>
        <path d="M376.31,326.31a48.12,48.12,0,0,0,3.45-4.66c.54-.76.76-1.31-.29-1.67.76-.51,1.74-.8,2.08-1.44,2-3.72,3.92-7.52,5.71-11l-1.59-1.93c-2.09,4.06-4,8-6.12,11.76-1.93,3.35-4.16,6.53-6.26,9.78l.78-.21Z"
              transform="translate(-102.58 -89.19)" style="fill:#606fb4"/>
        <path d="M257.42,361c.74.35.88-.23,1.14-.72a6.58,6.58,0,0,1,.78-1h0a106.62,106.62,0,0,1-20.07-10.91c-.68,2.29-.69,2.29,1.1,3.53a7.76,7.76,0,0,1,.69.4c1,.88,2.07,1.53,3.43.58.18-.13.54,0,1,0l-1.38,1.64Z"
              transform="translate(-102.58 -89.19)" style="fill:#606fb4"/>
        <path d="M189.09,375.09c-.7-1.38-1.39-2.76-2.21-4.37a9.84,9.84,0,0,0-.91,1.89,1.62,1.62,0,0,0,.25,1.31q5,4.77,10.06,9.43a2,2,0,0,0,2.68,0l-8.65-8.63-.3.28a4.12,4.12,0,0,1,.13.47c0,.29.05.58.08.86a3.25,3.25,0,0,1-.68-.46A3.84,3.84,0,0,1,189.09,375.09Z"
              transform="translate(-102.58 -89.19)" style="fill:#606fb4"/>
        <path d="M235.17,345.25a3.45,3.45,0,0,0-4.34-.41l7.26,5.54c.78-2.37.77-2.36-.92-3.57C236.48,346.31,235.81,345.8,235.17,345.25Z"
              transform="translate(-102.58 -89.19)" style="fill:#606fb4"/>
        <path d="M319.87,331.65c-.12-.81-.29-2-.53-3.68l-5.86,5.5C316.19,335,318,333.39,319.87,331.65Z"
              transform="translate(-102.58 -89.19)" style="fill:#606fb4"/>
        <path d="M182.21,369.55l2.63,2.84.32-.16c-.12-1.13,1.15-2.53-.47-3.31C184.15,368.66,183.18,369.28,182.21,369.55Z"
              transform="translate(-102.58 -89.19)" style="fill:#606fb4"/>
        <path d="M392.18,332.61c.35-.63.63-1.29.93-1.95l-.35-.4c-.49.08-1.27,0-1.4.29a2.81,2.81,0,0,0,0,1.7C391.39,332.43,392.16,332.64,392.18,332.61Z"
              transform="translate(-102.58 -89.19)" style="fill:#606fb4"/>
        <path d="M228.51,375.19a1.07,1.07,0,0,0,0-.73,9.69,9.69,0,0,0-.65-1.56,3.83,3.83,0,0,0-.74-.76c.16,1,.26,1.79.42,2.59a1,1,0,0,0,.39.62A.56.56,0,0,0,228.51,375.19Z"
              transform="translate(-102.58 -89.19)" style="fill:#606fb4"/>
        <path d="M289.45,380.08c-.4,1-.77,1.84-1.13,2.72C290.12,382.1,290.48,381.1,289.45,380.08Z"
              transform="translate(-102.58 -89.19)" style="fill:#606fb4"/>
        <path d="M290,384.7l.17,3.46.91-.28C290.86,385.44,290.6,384.79,290,384.7Z" transform="translate(-102.58 -89.19)"
              style="fill:#606fb4"/>
    </g>
    <path d="M201.8,254.35l-2,35.79,22.62,36.74-19.57,5.25-16-29.15,8.37,31.21-18.93,5.08-19.54-72.81,18.93-5.08,7.59,28.29.84-30.56Z"
          transform="translate(-102.58 -89.19)" style="fill:#fff"/>
    <path d="M243.45,243.17,263,316l-18.93,5.08-19.55-72.81Z" transform="translate(-102.58 -89.19)" style="fill:#fff"/>
    <path d="M269.47,236.18l32.07-8.6,3.91,14.57-13.13,3.52,3.7,13.81,11.69-3.14,3.72,13.85-11.69,3.14L308,303.91,289,309Z"
          transform="translate(-102.58 -89.19)" style="fill:#fff"/>
    <path d="M355.43,213.11,385.8,283l-19.35,5.19-4.53-12.81-6.77,1.81,2.37,13.4L338,295.86l-9.89-75.4ZM358,262.62q-4.75-12-11.09-29.81,2.72,21.69,4.57,31.56Z"
          transform="translate(-102.58 -89.19)" style="fill:#fff"/>
    <path d="M406.83,199.31l15.63,58.25L434,254.47,437.89,269l-30.45,8.17L387.9,204.4Z"
          transform="translate(-102.58 -89.19)" style="fill:#fff"/>
    <path d="M204.82,371.86l12.9-15,2.45,2.1-5.34,6.22,10.75-1.57,3,2.57-11.7,1.55-.48,14.08-3.16-2.71.63-12.79L207.27,374Z"
          transform="translate(-102.58 -89.19)"
          style="fill:#606fb4;stroke:#606fb4;stroke-linecap:round;stroke-linejoin:round;stroke-width:0.25px"/>
    <path d="M224.69,387.21l6.8-10.86,2.5,1.56-6.81,10.87Zm9.42-15.76a1.72,1.72,0,0,1,1.14-.8,1.85,1.85,0,0,1,1.4.23,1.8,1.8,0,0,1,.83,1.14,1.75,1.75,0,0,1-.25,1.38,1.77,1.77,0,0,1-1.15.84,1.74,1.74,0,0,1-1.38-.24,1.76,1.76,0,0,1-.82-1.16A1.74,1.74,0,0,1,234.11,371.45Z"
          transform="translate(-102.58 -89.19)"
          style="fill:#606fb4;stroke:#606fb4;stroke-linecap:round;stroke-linejoin:round;stroke-width:0.25px"/>
    <path d="M237.73,394.6l4.42-9.24-2-1,1.11-2.31,2,1,1.48-3.1a5.6,5.6,0,0,1,2.59-2.94,4.14,4.14,0,0,1,3.5.32,7.52,7.52,0,0,1,.86.49,6.65,6.65,0,0,1,.82.63l-1.14,2.39a3.25,3.25,0,0,0-.52-.58,2.47,2.47,0,0,0-.61-.4,1.71,1.71,0,0,0-1.65-.07,4,4,0,0,0-1.36,1.77l-1.32,2.76,2.79,1.33L247.59,388l-2.79-1.33-4.42,9.24Z"
          transform="translate(-102.58 -89.19)"
          style="fill:#606fb4;stroke:#606fb4;stroke-linecap:round;stroke-linejoin:round;stroke-width:0.25px"/>
    <path d="M264.19,404.52l-2.81-.85.48-1.59a4.88,4.88,0,0,1-4.7.87,5.33,5.33,0,0,1-3.57-3,7.66,7.66,0,0,1,0-5.32,7.35,7.35,0,0,1,3-4.28,5.18,5.18,0,0,1,4.54-.6,5.33,5.33,0,0,1,2.39,1.41,3.8,3.8,0,0,1,1,2.28l.61-2,2.81.85Zm-.87-7a4.69,4.69,0,0,0,0-3.23,3.58,3.58,0,0,0-5-1.48,5.8,5.8,0,0,0-1.86,6,3.47,3.47,0,0,0,5,1.41A4.78,4.78,0,0,0,263.32,397.52Z"
          transform="translate(-102.58 -89.19)"
          style="fill:#606fb4;stroke:#606fb4;stroke-linecap:round;stroke-linejoin:round;stroke-width:0.25px"/>
    <path d="M276.17,406.85l3.05-20.73,2.91.43-3.05,20.73Z" transform="translate(-102.58 -89.19)"
          style="fill:#606fb4;stroke:#606fb4;stroke-linecap:round;stroke-linejoin:round;stroke-width:0.25px"/>
    <path d="M291,400.67l7.26.14-.05,2.71-7.26-.14Z" transform="translate(-102.58 -89.19)"
          style="fill:#606fb4;stroke:#606fb4;stroke-linecap:round;stroke-linejoin:round;stroke-width:0.25px"/>
    <path d="M323.23,406.08l-3-4.71-7.78,1.16-1.53,5.38-3.35.5,6.47-21.77,12.54,18.93Zm-10-6.37,5.48-.82-2.68-4.17q-.24-.41-.51-.93c-.18-.35-.37-.74-.56-1.18-.05.45-.1.86-.17,1.25s-.13.75-.21,1.08Z"
          transform="translate(-102.58 -89.19)"
          style="fill:#606fb4;stroke:#606fb4;stroke-linecap:round;stroke-linejoin:round;stroke-width:0.25px"/>
    <path d="M335,389.68l2.43,6.8a3.82,3.82,0,0,0,1.63,2.26,3.33,3.33,0,0,0,2.64-.08,3.37,3.37,0,0,0,2.09-1.61,3.82,3.82,0,0,0-.18-2.78l-2.43-6.8,2.78-1,2.13,6c.82,2.31,1,4.15.4,5.53s-1.85,2.43-3.88,3.15-3.76.76-5,.06-2.37-2.22-3.2-4.55l-2.13-6Z"
          transform="translate(-102.58 -89.19)"
          style="fill:#606fb4;stroke:#606fb4;stroke-linecap:round;stroke-linejoin:round;stroke-width:0.25px"/>
    <path d="M359.8,393l-4.88-9-2,1.08-1.23-2.26,2-1.08-2.31-4.26,2.59-1.41,2.31,4.27,2-1.07,1.23,2.26-2,1.07,4.89,9Z"
          transform="translate(-102.58 -89.19)"
          style="fill:#606fb4;stroke:#606fb4;stroke-linecap:round;stroke-linejoin:round;stroke-width:0.25px"/>
    <path d="M368.81,380.4a6.43,6.43,0,0,1-1.18-2.44,7,7,0,0,1-.13-2.7,6.88,6.88,0,0,1,.93-2.55,7.51,7.51,0,0,1,4.32-3.29,7.05,7.05,0,0,1,2.75-.18,6.65,6.65,0,0,1,2.58.84,6.49,6.49,0,0,1,2,1.76A6.59,6.59,0,0,1,381.4,377a7.49,7.49,0,0,1-.94,2.64,7.28,7.28,0,0,1-4.3,3.27,7,7,0,0,1-2.74.19,6.89,6.89,0,0,1-2.59-.86A6.5,6.5,0,0,1,368.81,380.4Zm8.82-6.66a4.26,4.26,0,0,0-2.75-1.71,3.82,3.82,0,0,0-4.49,3.41,4.5,4.5,0,0,0,3.66,4.81,3.82,3.82,0,0,0,4.48-3.4A4.28,4.28,0,0,0,377.63,373.74Z"
          transform="translate(-102.58 -89.19)"
          style="fill:#606fb4;stroke:#606fb4;stroke-linecap:round;stroke-linejoin:round;stroke-width:0.25px"/>
    <path d="M391.25,367.92a1.77,1.77,0,0,1-.55-1.26,1.78,1.78,0,0,1,1.76-1.81,1.75,1.75,0,0,1,1.27.52,1.68,1.68,0,0,1,.53,1.23,1.83,1.83,0,0,1-1.76,1.81A1.68,1.68,0,0,1,391.25,367.92Z"
          transform="translate(-102.58 -89.19)"
          style="fill:#606fb4;stroke:#606fb4;stroke-linecap:round;stroke-linejoin:round;stroke-width:0.25px"/>
    <path d="M405.25,354.22l-1.63,2.46-10.68-7.09,1.53-2.3,1.74,1.16a5.8,5.8,0,0,1-.52-2.75,5.36,5.36,0,0,1,.94-2.54,4.5,4.5,0,0,1,1.91-1.73,3.84,3.84,0,0,1,2.42-.2,6.76,6.76,0,0,1-.41-2.87,5.48,5.48,0,0,1,.93-2.52,4.89,4.89,0,0,1,1.62-1.59,3.46,3.46,0,0,1,1.95-.49,3.25,3.25,0,0,1,1,.26,8.69,8.69,0,0,1,1.45.82l.86.57,6.48,4.29-1.63,2.46-5.49-3.64a6.83,6.83,0,0,0-3.13-1.42,2.19,2.19,0,0,0-1.77,1.18,2.76,2.76,0,0,0-.45,2.67,7.28,7.28,0,0,0,2.81,2.75l4.87,3.23-1.64,2.47L403,345.77a6.66,6.66,0,0,0-3.07-1.35,2.18,2.18,0,0,0-1.86,1.15,3.34,3.34,0,0,0-.55,1.54,2.94,2.94,0,0,0,.27,1.55,3,3,0,0,0,.7.92,18,18,0,0,0,1.94,1.42Z"
          transform="translate(-102.58 -89.19)"
          style="fill:#606fb4;stroke:#606fb4;stroke-linecap:round;stroke-linejoin:round;stroke-width:0.25px"/>
    <path d="M424.84,316.54l-1.06,2.74-1.55-.59a4.88,4.88,0,0,1,.52,4.75,5.32,5.32,0,0,1-3.28,3.33,7.61,7.61,0,0,1-5.31-.37,7.36,7.36,0,0,1-4.05-3.27,5.22,5.22,0,0,1-.26-4.58,5.15,5.15,0,0,1,1.58-2.27,3.82,3.82,0,0,1,2.35-.85l-2-.76,1.06-2.74Zm-7,.35a4.67,4.67,0,0,0-3.22-.25,3.59,3.59,0,0,0-1.84,4.89,5.77,5.77,0,0,0,5.88,2.3,3.49,3.49,0,0,0,1.78-4.87A4.81,4.81,0,0,0,417.79,316.89Z"
          transform="translate(-102.58 -89.19)"
          style="fill:#606fb4;stroke:#606fb4;stroke-linecap:round;stroke-linejoin:round;stroke-width:0.25px"/>
</svg>
