<svg xmlns="http://www.w3.org/2000/svg" viewBox="0 0 500 500">
    <g id="freepik--background-complete--inject-54">
        <path d="M68.07,438s0-.05,0-.15,0-.26,0-.43c0-.4,0-1,0-1.67,0-1.45,0-3.55-.06-6.19l.1.1-31.92.06.16-.16h0V438l-.16-.16L58.9,438l6.71,0,1.82,0h.64s0,0-.15,0h-.45l-1.78,0-6.68.05-22.86.07H36v-8.59h0l.17-.17,31.92.07h.1v.1c0,2.67,0,4.78,0,6.25,0,.7,0,1.25,0,1.64v.42A.5.5,0,0,1,68.07,438Z"
              style="fill:#e0e0e0"></path>
        <path d="M72.4,429.6a1.26,1.26,0,0,1,0-.16c0-.12,0-.27,0-.45,0-.42,0-1,0-1.69,0-1.48,0-3.58-.07-6.15l.12.12-19.18,0c-.15.15.2-.19.16-.16h0v4.33c0,1.42,0,2.79,0,4.1l-.15-.16,13.72.08,4,0,1.07,0a1.81,1.81,0,0,1,.39,0l-.35,0-1,0-4,0-13.82.07h-.16v-8.58h0s.3-.31.16-.16l19.18,0h.12v.11c0,2.6,0,4.72-.07,6.22,0,.7,0,1.26,0,1.66A3.92,3.92,0,0,1,72.4,429.6Z"
              style="fill:#e0e0e0"></path>
        <rect x="377.72" y="385.6" width="27.76" height="7.34" style="fill:#ebebeb"></rect>
        <path d="M393.74,400.68v-.51c0-.34,0-.82,0-1.44,0-1.27,0-3.09,0-5.39l.08.09-27.75.05c.06-.06-.15.14.14-.14h0v7.33l-.14-.13,19.79.06,5.84,0,1.57,0h.56s0,0-.12,0h-.4l-1.55,0-5.81,0-19.88.06h-.13v-.14c0-1.18,0-2.38,0-3.61v-3.72h0l.15-.14,27.75.05h.09v.09l-.05,5.44c0,.61,0,1.08,0,1.43v.36C393.75,400.65,393.75,400.69,393.74,400.68Z"
              style="fill:#e0e0e0"></path>
        <path d="M132.71,171.31s-7.68,1.34-2.76,18.1,8.89,25.34,8.89,25.34.71,3.81-2.38,3.8-9.47-2.3-11.49,1.1,0,7.63,5,11.82,15.59,13.77,16.55,14.64,1.69,2.71-.42,3-17.19-.92-17.35,6.27,15.66,16.59,17.37,17.65,2,1.92,1.66,2.9-5.37.09-9.68-.09-9.33.37-9.07,4.53,8.74,14.4,32.73,21.4l11.32,2.52,8-8.46c16.06-19.15,17.43-32.38,15.34-36s-6.58-1.26-10.06,1.28-7.17,6.08-8,5.45-1.07-1.51-.23-3.34,8.77-18.43,4.64-24.32-16,3.52-17.92,4.42-2.34-1.06-2-2.29,3.8-15.11,5.63-21.37,1.27-10.82-2.43-12.59-7.6,3.74-10.17,5.47-4.08-1.84-4.08-1.84-1.47-9.35-6.69-26-12.51-13.39-12.51-13.39"
              style="fill:#ebebeb"></path>
        <path d="M173.14,307.12C169.35,294.87,163,273,157.43,254.21s-10.6-35.75-14.32-48c-1.87-6.12-3.38-11.08-4.42-14.53-.52-1.7-.93-3-1.2-3.95-.13-.44-.24-.78-.31-1l-.09-.35s0,.11.13.34l.33,1c.3.91.72,2.23,1.27,3.93,1.09,3.42,2.64,8.37,4.53,14.5,3.79,12.25,8.87,29.22,14.43,48s11.88,40.67,15.6,53"
              style="fill:#e0e0e0"></path>
        <path d="M133.76,223.21a3.41,3.41,0,0,1,.76.37c.47.26,1.15.65,2,1.15,1.65,1,3.9,2.41,6.36,4l6.27,4.16,1.91,1.25a4.46,4.46,0,0,1,.69.48,3.06,3.06,0,0,1-.76-.36c-.47-.26-1.15-.65-2-1.15-1.65-1-3.88-2.46-6.34-4.08l-6.3-4.11-1.91-1.24A4,4,0,0,1,133.76,223.21Z"
              style="fill:#e0e0e0"></path>
        <path d="M152.64,234.06c-.08-.05,2.65-4.82,6.1-10.65s6.32-10.53,6.4-10.48-2.64,4.82-6.09,10.66S152.73,234.11,152.64,234.06Z"
              style="fill:#e0e0e0"></path>
        <path d="M159.88,263.26a3.57,3.57,0,0,1,.59-.61l1.7-1.6c1.43-1.34,3.4-3.21,5.5-5.35s3.94-4.14,5.26-5.6l1.56-1.72a3.9,3.9,0,0,1,.61-.61,3.52,3.52,0,0,1-.5.7c-.34.43-.84,1.05-1.48,1.8-1.27,1.51-3.08,3.54-5.19,5.68s-4.11,4-5.59,5.29c-.74.65-1.34,1.17-1.77,1.51A3.92,3.92,0,0,1,159.88,263.26Z"
              style="fill:#e0e0e0"></path>
        <path d="M140.64,257.21a2.74,2.74,0,0,1,.78.16l2.08.56c1.75.5,4.16,1.2,6.81,2s5.06,1.54,6.79,2.09l2,.68a4.14,4.14,0,0,1,.74.29,2.74,2.74,0,0,1-.78-.16l-2.08-.56c-1.75-.49-4.16-1.2-6.81-2s-5.06-1.54-6.79-2.09l-2-.68A3.68,3.68,0,0,1,140.64,257.21Z"
              style="fill:#e0e0e0"></path>
        <path d="M143.76,283.8a4.75,4.75,0,0,1,1,.21l2.66.72c2.25.62,5.34,1.49,8.76,2.49s6.5,1.9,8.72,2.59l2.64.82a5.37,5.37,0,0,1,.95.35,5.2,5.2,0,0,1-1-.22l-2.67-.71c-2.24-.62-5.34-1.5-8.75-2.49s-6.5-1.91-8.73-2.59l-2.63-.82A5.37,5.37,0,0,1,143.76,283.8Z"
              style="fill:#e0e0e0"></path>
        <path d="M167.94,290.64a5.65,5.65,0,0,1,.73-.8l2.08-2.1c1.76-1.77,4.17-4.23,6.76-7s4.87-5.37,6.51-7.25l1.94-2.23a6.71,6.71,0,0,1,.75-.79,5.85,5.85,0,0,1-.64.88c-.43.55-1.06,1.34-1.85,2.3-1.59,1.93-3.85,4.54-6.45,7.33s-5,5.23-6.84,7c-.9.86-1.64,1.55-2.16,2A6.56,6.56,0,0,1,167.94,290.64Z"
              style="fill:#e0e0e0"></path>
        <path d="M355.91,86.22c-1,0-1.73-10-1.73-22.39s.78-22.4,1.73-22.4,1.73,10,1.73,22.4S356.87,86.22,355.91,86.22Z"
              style="fill:#e0e0e0"></path>
        <path d="M343.55,73.87c-.95,0-1.72-4.78-1.72-10.66s.77-10.66,1.72-10.66,1.73,4.77,1.73,10.66S344.51,73.87,343.55,73.87Z"
              style="fill:#e0e0e0"></path>
        <path d="M331.16,70.41c-1,0-1.85-2.41-2-5.49s.5-5.62,1.46-5.67,1.84,2.42,2,5.5S332.11,70.37,331.16,70.41Z"
              style="fill:#e0e0e0"></path>
        <path d="M368.82,75.37c-1,0-1.62-5.74-1.48-12.78s1-12.73,2-12.71,1.61,5.74,1.47,12.78S369.77,75.39,368.82,75.37Z"
              style="fill:#e0e0e0"></path>
        <path d="M382.84,70.69c-.95,0-1.72-2.5-1.72-5.58s.77-5.58,1.72-5.58,1.73,2.5,1.73,5.58S383.8,70.69,382.84,70.69Z"
              style="fill:#e0e0e0"></path>
        <path d="M400.28,65.11s0-.25-.07-.72-.08-1.2-.14-2.11c0-.46-.06-1-.1-1.55s-.18-1.18-.28-1.85a30.64,30.64,0,0,0-.93-4.57,42.17,42.17,0,0,0-4.92-11.76,44.24,44.24,0,0,0-29.79-20.74,40.7,40.7,0,0,0-5.58-.65c-1,0-1.9-.12-2.87-.11l-2.91.16c-.49,0-1,0-1.48.09l-1.47.23c-1,.16-2,.28-3,.48a49.06,49.06,0,0,0-11.62,4.25c-.93.51-1.82,1.09-2.74,1.64a21.66,21.66,0,0,0-2.66,1.83,49.85,49.85,0,0,0-5,4.25,50.57,50.57,0,0,0-4.32,5.1,42.5,42.5,0,0,0-6.29,12.13,46.76,46.76,0,0,0-2.27,13.89A46.83,46.83,0,0,0,314.16,79a42.5,42.5,0,0,0,6.29,12.13,49.41,49.41,0,0,0,4.32,5.11,49.74,49.74,0,0,0,5,4.24,22.91,22.91,0,0,0,2.66,1.84c.92.54,1.81,1.13,2.74,1.63a44.85,44.85,0,0,0,5.75,2.53,46.72,46.72,0,0,0,5.87,1.73c1,.2,2,.32,3,.48l1.46.23c.49.06,1,.06,1.48.09l2.91.15c1,0,1.93-.07,2.88-.11a40.56,40.56,0,0,0,5.57-.64,44.34,44.34,0,0,0,29.8-20.75,42.36,42.36,0,0,0,4.91-11.75,31,31,0,0,0,.93-4.58c.1-.67.22-1.28.28-1.85s.07-1.08.1-1.55c.06-.9.11-1.6.14-2.1s.07-.72.07-.72,0,.24,0,.72,0,1.2-.07,2.11q0,.7-.06,1.56c0,.57-.17,1.19-.26,1.86A30.52,30.52,0,0,1,399,76a41.65,41.65,0,0,1-4.84,11.89,44.58,44.58,0,0,1-30,21.11,40.37,40.37,0,0,1-5.65.67c-1,0-1.93.13-2.91.12l-3-.14c-.49,0-1,0-1.49-.1l-1.49-.22c-1-.16-2-.28-3-.48a48.07,48.07,0,0,1-6-1.74,47.48,47.48,0,0,1-5.83-2.55c-.95-.51-1.86-1.11-2.79-1.66a22.33,22.33,0,0,1-2.7-1.86,50,50,0,0,1-5.08-4.3,49.72,49.72,0,0,1-4.38-5.18,43.11,43.11,0,0,1-6.41-12.32,47.59,47.59,0,0,1-2.3-14.11A47.6,47.6,0,0,1,313.51,51a43.16,43.16,0,0,1,6.4-12.31,52.09,52.09,0,0,1,4.38-5.18,51.37,51.37,0,0,1,5.08-4.3,23.06,23.06,0,0,1,2.7-1.85c.94-.56,1.84-1.15,2.79-1.66a49,49,0,0,1,11.79-4.29c1-.2,2-.32,3-.48l1.49-.23c.49-.06,1-.06,1.49-.09l3-.15c1,0,1.95.09,2.91.12a43.24,43.24,0,0,1,5.64.67,44.66,44.66,0,0,1,30,21.11A41.88,41.88,0,0,1,399,54.24a30.75,30.75,0,0,1,.87,4.61c.09.68.21,1.3.26,1.87s0,1.09.06,1.56c0,.9.05,1.61.07,2.11S400.28,65.11,400.28,65.11Z"
              style="fill:#e0e0e0"></path>
        <path d="M342.48,277.47c-17-9.56-22.55-29.8-23.71-48.37-.19-3.1-.85-6.32.36-9.18s4.46-5,7.35-4c2.4.86,3.66,3.43,5.15,5.52a18.09,18.09,0,0,0,7.92,6.21c2.06.84,4.56,1.22,6.4,0,2.52-1.73,2.48-5.45,2.16-8.52l-1.77-17.17a28.45,28.45,0,0,1,.05-9.21c.67-3,2.52-5.92,5.36-7s6.62.24,7.53,3.19a28.32,28.32,0,0,1,.46,3.81c.21,1.27.94,2.63,2.18,2.86s2.41-.75,3.24-1.73c2.87-3.41,4.64-7.62,6.27-11.79s3.18-8.42,5.73-12.09,6.27-6.72,10.65-7.4,9.33,1.59,10.86,5.8-.57,8.86-3,12.64a69.31,69.31,0,0,1-13,15,5.71,5.71,0,0,0-2.15,2.8c-.46,2.11,1.67,4,3.76,4.44,2.37.54,4.83.06,7.25.11s5.12.86,6.25,3c1.56,3-.75,6.57-3.12,9A59.08,59.08,0,0,1,378.3,227c-2.18,1.05-4.49,2-6.16,3.77s-2.5,4.63-1.19,6.69,4.2,2.48,6.53,1.81,4.32-2.16,6.49-3.23c4.07-2,9.55-2.24,12.61,1.15a9.78,9.78,0,0,1,1.87,8.5,22.49,22.49,0,0,1-3.93,8A59.26,59.26,0,0,1,371,273.94c-9.47,4.35-18.45,6.15-28.53,3.53"
              style="fill:#f5f5f5"></path>
        <path d="M346.13,265.4a277.48,277.48,0,0,1,8.06-30.7q1.29-4,2.53-7.94c.84-2.6,1.66-5.18,2.63-7.66a137.57,137.57,0,0,1,6.37-13.9c2.23-4.33,4.52-8.35,6.68-12.1s4.26-7.19,6.29-10.25a108.56,108.56,0,0,1,10.69-13.73c1.38-1.52,2.49-2.66,3.25-3.42l.88-.87.31-.28a1.63,1.63,0,0,1-.27.33l-.83.9c-.74.79-1.82,1.95-3.18,3.49A115.33,115.33,0,0,0,379,183.07c-2,3.07-4.08,6.52-6.22,10.27s-4.41,7.78-6.63,12.1a139,139,0,0,0-6.31,13.87c-1,2.46-1.78,5-2.61,7.63s-1.67,5.26-2.53,7.94a284.2,284.2,0,0,0-8.08,30.63"
              style="fill:#e0e0e0"></path>
        <path d="M359.51,219.07a6,6,0,0,1-.43-1.29c-.24-.83-.55-2.05-.92-3.56-.73-3-1.59-7.22-2.53-11.85s-1.86-8.82-2.64-11.81c-.38-1.5-.7-2.71-.94-3.55a5.7,5.7,0,0,1-.3-1.32,6,6,0,0,1,.51,1.25c.3.82.68,2,1.12,3.51.87,3,1.86,7.16,2.8,11.8s1.74,8.72,2.37,11.88c.3,1.43.55,2.64.75,3.6A6.14,6.14,0,0,1,359.51,219.07Z"
              style="fill:#e0e0e0"></path>
        <path d="M398.3,207.86a8.4,8.4,0,0,1-1.56.34c-1,.19-2.46.45-4.25.84-3.58.74-8.49,1.94-13.85,3.49s-10.14,3.19-13.57,4.47c-1.72.62-3.1,1.17-4.06,1.54a9.71,9.71,0,0,1-1.5.53,7.82,7.82,0,0,1,1.42-.74c.93-.43,2.29-1,4-1.71,3.41-1.38,8.19-3.07,13.57-4.64a139.9,139.9,0,0,1,13.93-3.34c1.8-.33,3.27-.54,4.29-.66A8.9,8.9,0,0,1,398.3,207.86Z"
              style="fill:#e0e0e0"></path>
        <path d="M346.55,264.63a1.87,1.87,0,0,1-.32-.46l-.81-1.36c-.7-1.19-1.67-2.93-2.85-5.1-2.34-4.34-5.39-10.44-8.66-17.22s-6.26-12.89-8.51-17.28L322.72,218l-.73-1.42a2,2,0,0,1-.21-.51,2.63,2.63,0,0,1,.31.46l.82,1.36c.7,1.19,1.67,2.93,2.84,5.1,2.34,4.34,5.39,10.44,8.67,17.22s6.26,12.89,8.51,17.28l2.68,5.18c.29.57.53,1,.72,1.42A1.87,1.87,0,0,1,346.55,264.63Z"
              style="fill:#e0e0e0"></path>
        <path d="M397.41,242.63a2.5,2.5,0,0,1-.5.27l-1.48.65L390,245.92c-4.6,2-10.92,4.83-17.9,8s-13.33,5.92-18,7.83c-2.32.95-4.2,1.7-5.51,2.19l-1.52.56a2.29,2.29,0,0,1-.54.16,1.9,1.9,0,0,1,.5-.27l1.47-.65,5.45-2.37c4.6-2,10.91-4.83,17.89-8s13.33-5.92,18-7.82c2.32-1,4.2-1.71,5.52-2.2l1.51-.56A2.15,2.15,0,0,1,397.41,242.63Z"
              style="fill:#e0e0e0"></path>
        <circle cx="430.42" cy="129.8" r="31.03" transform="translate(280.45 553.62) rotate(-87.29)"
                style="fill:#ebebeb"></circle>
        <path d="M427.46,138.21l11.86-6.62a1.62,1.62,0,0,0,.09-2.77l-11.85-7.72a1.67,1.67,0,0,0-2.58,1.4v14.25A1.67,1.67,0,0,0,427.46,138.21Z"
              style="fill:#fafafa"></path>
        <rect x="108.3" y="397.48" width="32.52" height="8.6" style="fill:#e0e0e0"></rect>
        <rect x="131.68" y="379.81" width="32.52" height="8.6" style="fill:#f5f5f5"></rect>
        <path d="M150.45,397.48s0-.06,0-.16v-.44c0-.4,0-1,0-1.69,0-1.49,0-3.62-.06-6.31l.1.1-32.52.06c.08-.07-.16.17.17-.16h0v4.36c0,1.43,0,2.85,0,4.23l-.16-.16,23.18.07,6.84.05,1.85,0h0l-1.82,0-6.8.05-23.29.07h-.16v-6.56c0-.37,0-.73,0-1.1v-1.09h0l.17-.17,32.52.06h.1v.1c0,2.71,0,4.87-.05,6.37,0,.71,0,1.27,0,1.67,0,.17,0,.31,0,.42S150.46,397.48,150.45,397.48Z"
              style="fill:#e0e0e0"></path>
    </g>
    <g id="freepik--Wall--inject-54">
        <path d="M488.48,357.33c0,.14-105.44.26-235.47.26s-235.49-.12-235.49-.26,105.41-.26,235.49-.26S488.48,357.18,488.48,357.33Z"
              style="fill:#263238"></path>
    </g>
    <g id="freepik--Plant--inject-54">
        <path d="M94.65,132l.06-.34.21-1c.19-.88.48-2.15.84-3.78.74-3.3,1.82-8,3.14-13.91l10.56-46,.18-.81.19.81c.07.33.15.68.23,1,4.1,18.23,7.82,34.74,10.51,46.71,1.33,6,2.4,10.8,3.15,14.16.36,1.66.64,3,.83,3.86l.21,1a3,3,0,0,1,.06.35s0-.12-.1-.34-.14-.57-.24-1c-.21-.89-.52-2.18-.91-3.84-.77-3.35-1.88-8.18-3.26-14.14-2.72-12-6.47-28.45-10.62-46.68l-.23-1h.37c-4.17,18-7.94,34.2-10.67,46-1.37,5.85-2.49,10.59-3.26,13.88L95,130.69l-.24,1C94.69,131.88,94.65,132,94.65,132Z"
              style="fill:#263238"></path>
        <path d="M94.64,145.65V134.11h30.8v11.54A13.43,13.43,0,0,1,112,159.08h-3.92A13.43,13.43,0,0,1,94.64,145.65Z"
              style="fill:#455a64"></path>
        <path d="M94.64,134.11a2.23,2.23,0,0,1,.35.48l.94,1.43c.83,1.28,2,3.08,3.4,5.29l11.07,17.55.08.12h-.32l10.74-17.64c1.37-2.23,2.49-4,3.29-5.32l.91-1.44a3.19,3.19,0,0,1,.34-.48,3.65,3.65,0,0,1-.28.52l-.84,1.47-3.19,5.38c-2.74,4.56-6.49,10.8-10.65,17.7l-.16.27-.16-.27-.08-.12-11-17.6-3.29-5.36-.88-1.47A5,5,0,0,1,94.64,134.11Z"
              style="fill:#263238"></path>
        <path d="M113.1,66.9a3.37,3.37,0,1,1-3.36-3.36A3.36,3.36,0,0,1,113.1,66.9Z" style="fill:#263238"></path>
        <path d="M109.74,9.67c.1,0,.19,13,.19,28.93s-.09,28.93-.19,28.93-.19-13-.19-28.93S109.63,9.67,109.74,9.67Z"
              style="fill:#263238"></path>
        <path d="M111.48,160.34A1.44,1.44,0,1,1,110,158.9,1.44,1.44,0,0,1,111.48,160.34Z" style="fill:#263238"></path>
        <path d="M109.4,160.88l.24-.12a3.2,3.2,0,0,0-1.46,2.38,8.43,8.43,0,0,0,.25,2.87c.06.3.22.67.53.65s.4-.34.45-.61a5.9,5.9,0,0,0,0-1.73,3.08,3.08,0,0,0,.67,2,.4.4,0,0,0,.36.19c.13,0,.19-.19.22-.32a6.7,6.7,0,0,0,.22-1.48,2.21,2.21,0,0,0,.46,1.2.78.78,0,0,0,1.14.08,1.11,1.11,0,0,0,.13-.84,9.92,9.92,0,0,0-2-4.73"
              style="fill:#263238"></path>
        <path d="M96.58,134.11s-13.83-16-12.29-16.53,13.83,8.26,13.83,8.26-10.57-23.63-8.45-25.36,13.25,20.94,13.25,20.94-1.73-33,0-33.43S111,121,111,121s9.42-30.55,12.11-30.55-2.88,29.4-2.88,29.4,11.14-18.83,12.87-16.34-7.88,22.87-7.88,22.87,14-11.72,14.61-10.18-15.18,17.87-15.18,17.87Z"
              style="fill:#37474F"></path>
        <path d="M94.65,110.09c.1,0,2.55,5.21,5.48,11.75s5.23,11.86,5.14,11.9-2.55-5.22-5.48-11.75S94.56,110.13,94.65,110.09Z"
              style="fill:#263238"></path>
        <path d="M105.83,113c.1,0,.51,4.63.91,10.35s.64,10.38.53,10.38-.51-4.62-.91-10.35S105.72,113,105.83,113Z"
              style="fill:#263238"></path>
        <path d="M121.25,98.23a1.74,1.74,0,0,1-.09.37l-.3,1.05c-.29,1-.68,2.27-1.16,3.85-1,3.25-2.28,7.75-3.62,12.75s-2.44,9.57-3.21,12.87L112,133c-.1.43-.19.78-.26,1.07a1.4,1.4,0,0,1-.11.36s0-.13,0-.38.11-.64.19-1.08c.17-.93.44-2.28.79-3.94.71-3.32,1.78-7.89,3.11-12.9s2.69-9.51,3.74-12.74c.52-1.62,1-2.92,1.27-3.82l.37-1C121.18,98.34,121.23,98.22,121.25,98.23Z"
              style="fill:#263238"></path>
        <path d="M127.91,115.26c.09.06-2.61,4.09-6,9s-6.26,8.84-6.34,8.78,2.61-4.09,6-9S127.83,115.2,127.91,115.26Z"
              style="fill:#263238"></path>
        <path d="M101.25,133.77a5.52,5.52,0,0,1-1.21-.87,33.8,33.8,0,0,1-2.63-2.43,32.25,32.25,0,0,1-2.36-2.69,5.36,5.36,0,0,1-.84-1.23c.09-.07,1.53,1.67,3.47,3.66S101.32,133.68,101.25,133.77Z"
              style="fill:#263238"></path>
        <path d="M109.65,127.43a14.17,14.17,0,0,1,.5,3.29,15.34,15.34,0,0,1,.11,3.32,13.88,13.88,0,0,1-.49-3.29A15,15,0,0,1,109.65,127.43Z"
              style="fill:#263238"></path>
        <path d="M125.44,141.3a8.53,8.53,0,0,1-1.19.24c-.77.14-1.89.31-3.27.51a106.41,106.41,0,0,1-10.89,1,69,69,0,0,1-10.91-.45c-1.39-.18-2.51-.36-3.28-.53a7.76,7.76,0,0,1-1.18-.28,6.23,6.23,0,0,1,1.21.14c.77.11,1.89.26,3.28.4a78.76,78.76,0,0,0,10.87.34c4.25-.14,8.09-.54,10.86-.85l3.29-.38A6.75,6.75,0,0,1,125.44,141.3Z"
              style="fill:#fff"></path>
        <path d="M125.44,144.73a6.31,6.31,0,0,1-1.19.25c-.77.14-1.89.31-3.27.5a109,109,0,0,1-10.89,1A68.79,68.79,0,0,1,99.18,146c-1.39-.18-2.51-.36-3.28-.52a9.66,9.66,0,0,1-1.18-.28,6.61,6.61,0,0,1,1.21.13c.77.12,1.89.26,3.28.41a82.06,82.06,0,0,0,10.87.34c4.25-.15,8.09-.54,10.86-.85l3.29-.39A8.2,8.2,0,0,1,125.44,144.73Z"
              style="fill:#fff"></path>
    </g>
    <g id="freepik--Device--inject-54">
        <path d="M326.6,452.13l-127-.59A27.67,27.67,0,0,1,172,423.76l1.35-318.47a27.67,27.67,0,0,1,27.8-27.56l127,.59a27.66,27.66,0,0,1,27.54,27.79L354.4,424.58A27.68,27.68,0,0,1,326.6,452.13Z"
              style="fill:#263238"></path>
        <path d="M328,89.31l-24.63-.11a6.11,6.11,0,0,0-6,6.22l0,4.47a6.11,6.11,0,0,1-6,6.22l-48-.22a6.13,6.13,0,0,1-6-6.28l0-4.47a6.12,6.12,0,0,0-5.95-6.28l-8.66,0-21.56-.1A19.38,19.38,0,0,0,181.77,108l-1.31,310.85a19.38,19.38,0,0,0,19.29,19.46l126.77.59A19.37,19.37,0,0,0,346,419.62l1.32-310.85A19.38,19.38,0,0,0,328,89.31Z"
              style="fill:#fafafa"></path>
        <rect x="257.1" y="156.72" width="16.83" height="26.71" rx="8.41" style="fill:#37474F"></rect>
        <path d="M265.52,188.54a12.42,12.42,0,0,1-12.41-12.41.59.59,0,1,1,1.17,0,11.25,11.25,0,0,0,11.23,11.23c6.62,0,11.24-4.62,11.24-11.23a.59.59,0,1,1,1.17,0C277.92,183.43,272.82,188.53,265.52,188.54Z"
              style="fill:#37474F"></path>
        <rect x="264.93" y="187.94" width="1.17" height="6.08" style="fill:#37474F"></rect>
        <path d="M272.86,194.35H258.17a.6.6,0,0,1-.59-.59.59.59,0,0,1,.59-.59h14.69a.59.59,0,0,1,.59.59A.6.6,0,0,1,272.86,194.35Z"
              style="fill:#37474F"></path>
        <path d="M333.17,124.77a49.6,49.6,0,0,1-6.85.24,49.48,49.48,0,0,1-6.85-.24,46.74,46.74,0,0,1,6.85-.25A46.85,46.85,0,0,1,333.17,124.77Z"
              style="fill:#263238"></path>
        <path d="M333.17,121.19a48.59,48.59,0,0,1-6.85.25,48.47,48.47,0,0,1-6.85-.25,46.74,46.74,0,0,1,6.85-.25A46.85,46.85,0,0,1,333.17,121.19Z"
              style="fill:#263238"></path>
        <path d="M333.17,117.61a46.85,46.85,0,0,1-6.85.25,46.74,46.74,0,0,1-6.85-.25,46.74,46.74,0,0,1,6.85-.25A46.85,46.85,0,0,1,333.17,117.61Z"
              style="fill:#263238"></path>
        <path d="M200.84,125.21c-.11.13-2.9-1.95-6.25-4.66v-.46h0l0,0,.08-.07.15-.12.31-.25.61-.48,1.14-.91,2-1.5a8.27,8.27,0,0,1,1.91-1.27,9.11,9.11,0,0,1-1.64,1.6l-1.89,1.6-1.13.93-.59.49-.31.25-.16.13-.08.06,0,0,0,0h0v-.46A53,53,0,0,1,200.84,125.21Z"
              style="fill:#263238"></path>
        <path d="M318.32,253.05s.21,0,.61-.09a3.31,3.31,0,0,0,1.55-.8,3.27,3.27,0,0,0,1-2.58,3.24,3.24,0,0,0-1.82-3.17,3.2,3.2,0,0,0-1.08-.3c-.37,0-.79,0-1.2,0l-2.63,0-5.94,0-14.5,0-84,.08a3,3,0,0,0-2.42,1.22,3.66,3.66,0,0,0-.56,2.7,3,3,0,0,0,1.51,2.21,2.92,2.92,0,0,0,1.32.38c.47,0,1,0,1.48,0h11.79l22.29,0,37.74.06,25.44.08,6.92.05,1.8,0c.41,0,.61,0,.61,0l-.61,0-1.8,0-6.92.05-25.44.09-37.74,0-22.29,0h-13.3a3.56,3.56,0,0,1-3.33-3.05,6.12,6.12,0,0,1,0-1.6,3.34,3.34,0,0,1,.64-1.5,3.57,3.57,0,0,1,2.85-1.44l84,.08,14.5,0,5.94,0h2.63c.42,0,.81,0,1.23,0a3.75,3.75,0,0,1,1.91,6.35,3.22,3.22,0,0,1-1.62.77A2.24,2.24,0,0,1,318.32,253.05Z"
              style="fill:#263238"></path>
        <rect x="208.44" y="246.94" width="55.17" height="5.15" rx="2.32" style="fill:#37474F"></rect>
        <path d="M279.17,284.44a13.69,13.69,0,1,1-14.58-12.73A13.68,13.68,0,0,1,279.17,284.44Z"
              style="fill:#37474F"></path>
        <path d="M264.21,289.07l5.23-2.92a.71.71,0,0,0,0-1.22l-5.23-3.41a.73.73,0,0,0-1.13.62v6.28A.73.73,0,0,0,264.21,289.07Z"
              style="fill:#fafafa"></path>
        <path d="M220.75,289.21c-.29,0-.53-1.82-.53-4.07s.24-4.08.53-4.08.54,1.83.54,4.08S221.05,289.21,220.75,289.21Z"
              style="fill:#37474F"></path>
        <path d="M229.87,281.54l-5.28,2.82a.71.71,0,0,0-.07,1.22l5.16,3.5a.73.73,0,0,0,1.15-.59l.12-6.29A.73.73,0,0,0,229.87,281.54Z"
              style="fill:#37474F"></path>
        <path d="M306.79,281.06c.3,0,.54,1.83.54,4.08s-.24,4.07-.54,4.07-.54-1.82-.54-4.07S306.49,281.06,306.79,281.06Z"
              style="fill:#37474F"></path>
        <path d="M297.68,288.73l5.28-2.82a.71.71,0,0,0,.06-1.22l-5.16-3.5a.74.74,0,0,0-1.15.6l-.12,6.28A.74.74,0,0,0,297.68,288.73Z"
              style="fill:#37474F"></path>
        <path d="M311.77,220.16c0,.14-21.44.26-47.89.26S216,220.3,216,220.16s21.44-.26,47.89-.26S311.77,220,311.77,220.16Z"
              style="fill:#263238"></path>
        <path d="M290.27,227.29c0,.14-13.19.26-29.46.26s-29.46-.12-29.46-.26,13.19-.26,29.46-.26S290.27,227.14,290.27,227.29Z"
              style="fill:#263238"></path>
        <rect x="322.15" y="400.82" width="14.79" height="13.46" rx="4.56" style="fill:#37474F"></rect>
        <path d="M300.92,404.08a1.69,1.69,0,0,0-1.77,1.56,1.68,1.68,0,0,0-1.77-1.56,1.79,1.79,0,0,0-1.35,2,3,3,0,0,0,1.35,1.91,6.33,6.33,0,0,1,1.77,1.53,6.33,6.33,0,0,1,1.77-1.53,3,3,0,0,0,1.35-1.91A1.79,1.79,0,0,0,300.92,404.08Z"
              style="fill:#37474F"></path>
        <path d="M310.59,406.79a.81.81,0,1,1-.81-.81A.81.81,0,0,1,310.59,406.79Z" style="fill:#263238"></path>
        <path d="M313.22,406.79a.82.82,0,1,1-.81-.81A.81.81,0,0,1,313.22,406.79Z" style="fill:#263238"></path>
        <path d="M315.85,406.79a.82.82,0,0,1-.82.81.81.81,0,0,1,0-1.62A.82.82,0,0,1,315.85,406.79Z"
              style="fill:#263238"></path>
        <path d="M273.2,412.36c0,.19-11.67.34-26.06.34s-26.06-.15-26.06-.34,11.67-.33,26.06-.33S273.2,412.18,273.2,412.36Z"
              style="fill:#263238"></path>
        <path d="M243.88,416.64c0,.18-5,.33-11.23.33s-11.23-.15-11.23-.33,5-.34,11.23-.34S243.88,416.45,243.88,416.64Z"
              style="fill:#263238"></path>
        <path d="M201.69,397.15A10.87,10.87,0,1,0,212.56,408,10.87,10.87,0,0,0,201.69,397.15Z"
              style="fill:#37474F"></path>
        <path d="M335.23,314.25c0,.18-32.33.33-72.2.33s-72.21-.15-72.21-.33,32.33-.34,72.21-.34S335.23,314.06,335.23,314.25Z"
              style="fill:#263238"></path>
        <path d="M335.23,352.63c0,.19-32.33.34-72.2.34s-72.21-.15-72.21-.34,32.33-.33,72.21-.33S335.23,352.45,335.23,352.63Z"
              style="fill:#263238"></path>
        <path d="M335.23,391c0,.19-32.33.34-72.2.34s-72.21-.15-72.21-.34,32.33-.33,72.21-.33S335.23,390.84,335.23,391Z"
              style="fill:#263238"></path>
        <rect x="220.89" y="405.36" width="40.88" height="2" style="fill:#37474F"></rect>
        <rect x="322.15" y="364.04" width="14.79" height="13.46" rx="4.56" style="fill:#455a64"></rect>
        <path d="M201.69,360a10.87,10.87,0,1,0,10.87,10.87A10.87,10.87,0,0,0,201.69,360Z" style="fill:#455a64"></path>
        <path d="M300.92,367.3a1,1,0,0,1,.54.15,1.91,1.91,0,0,1,.88,1.28,2.39,2.39,0,0,1-.87,2.17c-.67.64-1.64,1.05-2.21,1.91l-.11.17-.11-.17a7.92,7.92,0,0,0-2-1.66,2.92,2.92,0,0,1-1.19-1.84,2,2,0,0,1,.8-1.86,1.48,1.48,0,0,1,1.79.05,1.89,1.89,0,0,1,.75,1.35h-.18a1.83,1.83,0,0,1,1.16-1.51,1,1,0,0,1,.7,0,1.7,1.7,0,0,0-.66.13,1.75,1.75,0,0,0-1,1.43h-.18a1.73,1.73,0,0,0-.7-1.19,1.24,1.24,0,0,0-1.51,0,1.76,1.76,0,0,0-.69,1.62,2.68,2.68,0,0,0,1.1,1.67,8,8,0,0,1,2,1.73H299a12,12,0,0,1,2.27-1.93,2.25,2.25,0,0,0,.87-2,1.82,1.82,0,0,0-.77-1.23A2.12,2.12,0,0,0,300.92,367.3Z"
              style="fill:#263238"></path>
        <path d="M310.59,370a.81.81,0,1,1-.81-.81A.81.81,0,0,1,310.59,370Z" style="fill:#263238"></path>
        <path d="M313.22,370a.82.82,0,1,1-.81-.81A.81.81,0,0,1,313.22,370Z" style="fill:#263238"></path>
        <path d="M315.85,370a.82.82,0,0,1-.82.81.81.81,0,0,1,0-1.62A.82.82,0,0,1,315.85,370Z"
              style="fill:#263238"></path>
        <path d="M328.3,368.55c0,1.08,0,2.68,0,3.77a.59.59,0,0,0,.95.46l2.51-1.87a.59.59,0,0,0,0-1l-2.53-1.88A.59.59,0,0,0,328.3,368.55Z"
              style="fill:#fff"></path>
        <path d="M328.3,405.62c0,1.08,0,2.68,0,3.76a.59.59,0,0,0,.95.47l2.51-1.87a.59.59,0,0,0,0-1l-2.53-1.88A.59.59,0,0,0,328.3,405.62Z"
              style="fill:#fff"></path>
        <rect x="220.89" y="366.57" width="40.88" height="2" style="fill:#455a64"></rect>
        <path d="M273.2,375.59c0,.18-11.67.33-26.06.33s-26.06-.15-26.06-.33,11.67-.34,26.06-.34S273.2,375.4,273.2,375.59Z"
              style="fill:#263238"></path>
        <path d="M243.88,379.86c0,.18-5,.33-11.23.33s-11.23-.15-11.23-.33,5-.34,11.23-.34S243.88,379.67,243.88,379.86Z"
              style="fill:#263238"></path>
        <rect x="322.15" y="326.82" width="14.79" height="13.46" rx="4.56" style="fill:#37474F"></rect>
        <path d="M201.69,322.73a10.87,10.87,0,1,0,10.87,10.87A10.87,10.87,0,0,0,201.69,322.73Z"
              style="fill:#37474F"></path>
        <path d="M300.92,330.07a1.7,1.7,0,0,0-1.77,1.56,1.69,1.69,0,0,0-1.77-1.56,1.8,1.8,0,0,0-1.35,2,3,3,0,0,0,1.35,1.9,6.37,6.37,0,0,1,1.77,1.54,6.37,6.37,0,0,1,1.77-1.54,3,3,0,0,0,1.35-1.9A1.8,1.8,0,0,0,300.92,330.07Z"
              style="fill:#37474F"></path>
        <path d="M310.59,332.79a.81.81,0,1,1-.81-.81A.81.81,0,0,1,310.59,332.79Z" style="fill:#263238"></path>
        <path d="M313.22,332.79a.82.82,0,1,1-.81-.81A.81.81,0,0,1,313.22,332.79Z" style="fill:#263238"></path>
        <path d="M315.85,332.79a.82.82,0,0,1-.82.81.81.81,0,0,1,0-1.62A.82.82,0,0,1,315.85,332.79Z"
              style="fill:#263238"></path>
        <path d="M328.3,331.33c0,1.08,0,2.68,0,3.76a.59.59,0,0,0,.95.47l2.51-1.87a.59.59,0,0,0,0-.95l-2.53-1.88A.59.59,0,0,0,328.3,331.33Z"
              style="fill:#fff"></path>
        <rect x="220.89" y="329.34" width="40.88" height="2" style="fill:#37474F"></rect>
        <path d="M273.2,338.36c0,.19-11.67.34-26.06.34s-26.06-.15-26.06-.34,11.67-.33,26.06-.33S273.2,338.18,273.2,338.36Z"
              style="fill:#263238"></path>
        <path d="M243.88,342.63c0,.19-5,.34-11.23.34s-11.23-.15-11.23-.34,5-.33,11.23-.33S243.88,342.45,243.88,342.63Z"
              style="fill:#263238"></path>
        <path d="M201.51,338c-.19,0-.34-1.95-.34-4.36s.15-4.35.34-4.35.34,1.95.34,4.35S201.7,338,201.51,338Z"
              style="fill:#e0e0e0"></path>
        <path d="M199.11,335.55c-.19,0-.34-.92-.34-2.07s.15-2.07.34-2.07.33.93.33,2.07S199.29,335.55,199.11,335.55Z"
              style="fill:#e0e0e0"></path>
        <path d="M196.7,334.88c-.19,0-.36-.47-.39-1.07s.09-1.09.28-1.1.36.47.39,1.07S196.88,334.87,196.7,334.88Z"
              style="fill:#e0e0e0"></path>
        <path d="M204,335.85c-.19,0-.31-1.12-.29-2.49s.2-2.47.39-2.47.31,1.12.28,2.49S204.21,335.85,204,335.85Z"
              style="fill:#e0e0e0"></path>
        <path d="M206.75,334.94c-.19,0-.34-.49-.34-1.09s.15-1.08.34-1.08.33.48.33,1.08S206.93,334.94,206.75,334.94Z"
              style="fill:#e0e0e0"></path>
        <path d="M201.82,374.59c-.18,0-.33-1.95-.33-4.35s.15-4.36.33-4.36.34,1.95.34,4.36S202,374.59,201.82,374.59Z"
              style="fill:#e0e0e0"></path>
        <path d="M199.42,372.19c-.19,0-.34-.93-.34-2.07s.15-2.07.34-2.07.33.92.33,2.07S199.6,372.19,199.42,372.19Z"
              style="fill:#e0e0e0"></path>
        <path d="M197,371.52c-.19,0-.36-.47-.39-1.07s.1-1.09.28-1.1.36.47.39,1.07S197.19,371.51,197,371.52Z"
              style="fill:#e0e0e0"></path>
        <path d="M204.33,372.48c-.18,0-.31-1.11-.28-2.48s.19-2.48.38-2.47.31,1.11.29,2.48S204.52,372.49,204.33,372.48Z"
              style="fill:#e0e0e0"></path>
        <path d="M207.06,371.57c-.19,0-.34-.48-.34-1.08s.15-1.09.34-1.09.34.49.34,1.09S207.25,371.57,207.06,371.57Z"
              style="fill:#e0e0e0"></path>
        <path d="M201.82,411.87c-.18,0-.33-1.95-.33-4.36s.15-4.36.33-4.36.34,2,.34,4.36S202,411.87,201.82,411.87Z"
              style="fill:#e0e0e0"></path>
        <path d="M199.42,409.46c-.19,0-.34-.93-.34-2.07s.15-2.07.34-2.07.33.92.33,2.07S199.6,409.46,199.42,409.46Z"
              style="fill:#e0e0e0"></path>
        <path d="M197,408.79c-.19,0-.36-.47-.39-1.07s.1-1.09.28-1.1.36.47.39,1.07S197.19,408.78,197,408.79Z"
              style="fill:#e0e0e0"></path>
        <path d="M204.33,409.76c-.18,0-.31-1.12-.28-2.49s.19-2.48.38-2.47.31,1.11.29,2.48S204.52,409.76,204.33,409.76Z"
              style="fill:#e0e0e0"></path>
        <path d="M207.06,408.84c-.19,0-.34-.48-.34-1.08s.15-1.09.34-1.09.34.49.34,1.09S207.25,408.84,207.06,408.84Z"
              style="fill:#e0e0e0"></path>
        <path d="M251.73,121.79c0,1.44-1.06,2.32-2.77,2.32h-1.48V126h-1.21v-6.53H249C250.67,119.47,251.73,120.35,251.73,121.79Zm-1.22,0c0-.82-.55-1.3-1.61-1.3h-1.42v2.6h1.42C250,123.09,250.51,122.61,250.51,121.79Z"
              style="fill:#263238"></path>
        <path d="M252.4,123.51a2.66,2.66,0,1,1,2.65,2.55A2.51,2.51,0,0,1,252.4,123.51Zm4.13,0a1.48,1.48,0,1,0-1.48,1.55A1.45,1.45,0,0,0,256.53,123.51Z"
              style="fill:#263238"></path>
        <path d="M263.7,119.08V126h-1.12v-.65a2,2,0,0,1-1.65.71,2.55,2.55,0,0,1,0-5.1,2.06,2.06,0,0,1,1.6.67v-2.55Zm-1.15,4.43a1.48,1.48,0,1,0-1.48,1.55A1.46,1.46,0,0,0,262.55,123.51Z"
              style="fill:#263238"></path>
        <path d="M264.82,123.51a2.51,2.51,0,0,1,2.69-2.55,2.25,2.25,0,0,1,2.13,1.16l-.9.52a1.41,1.41,0,0,0-1.24-.69,1.56,1.56,0,0,0,0,3.11,1.41,1.41,0,0,0,1.24-.69l.9.53a2.28,2.28,0,0,1-2.13,1.16A2.52,2.52,0,0,1,264.82,123.51Z"
              style="fill:#263238"></path>
        <path d="M274.81,123.08V126h-1.1v-.61a1.76,1.76,0,0,1-1.57.67c-1.14,0-1.86-.62-1.86-1.49s.56-1.48,2.07-1.48h1.29V123c0-.68-.41-1.08-1.24-1.08a2.5,2.5,0,0,0-1.51.49l-.46-.84a3.54,3.54,0,0,1,2.11-.62C274,121,274.81,121.64,274.81,123.08Zm-1.17,1.36v-.58h-1.2c-.79,0-1,.3-1,.66s.36.69.95.69A1.27,1.27,0,0,0,273.64,124.44Z"
              style="fill:#263238"></path>
        <path d="M275.73,125.5l.44-.88a3.45,3.45,0,0,0,1.74.49c.74,0,1-.21,1-.55,0-1-3.07-.06-3.07-2,0-.94.84-1.56,2.19-1.56a4,4,0,0,1,1.86.43l-.45.89a2.71,2.71,0,0,0-1.42-.38c-.71,0-1.05.24-1.05.56,0,1,3.08.11,3.08,2.06,0,.93-.86,1.54-2.26,1.54A3.88,3.88,0,0,1,275.73,125.5Z"
              style="fill:#263238"></path>
        <path d="M284.09,125.72a1.8,1.8,0,0,1-1.12.34,1.53,1.53,0,0,1-1.72-1.68V122h-.82v-.94h.82v-1.13h1.17v1.13h1.33V122h-1.33v2.36c0,.49.24.75.69.75a1.11,1.11,0,0,0,.65-.2Z"
              style="fill:#263238"></path>
    </g>
</svg>
